# Blender v2.80 (sub 75) OBJ File: 'experimental rigs.blend'
# www.blender.org
v 0.000595 0.008006 0.103390
v -0.004862 0.008003 0.116125
v -0.014955 0.007996 0.103959
v -0.027199 0.007990 0.125492
v -0.010827 0.008000 0.125978
v -0.016985 0.007997 0.134156
v -0.029679 0.007989 0.135089
v -0.029762 0.007990 0.144032
v -0.027476 0.007991 0.143891
v -0.028744 0.007990 0.129940
v -0.025340 0.007992 0.142744
v -0.014869 -0.008004 0.103992
v -0.009122 -0.007999 0.123521
v -0.017812 -0.008003 0.135129
v -0.026973 -0.008009 0.125014
v -0.002261 -0.007995 0.110745
v -0.029618 -0.008011 0.134567
v -0.025823 -0.008008 0.143128
v -0.028735 -0.008010 0.129941
v -0.027803 -0.008009 0.143914
v -0.029751 -0.008010 0.144046
v 0.000412 -0.007994 0.103496
v -0.002172 -0.007996 0.103496
v 0.000595 0.008006 0.103390
v 0.000595 0.008006 0.103390
v -0.004862 0.008003 0.116125
v -0.014955 0.007996 0.103959
v -0.027199 0.007990 0.125492
v -0.010827 0.008000 0.125978
v -0.016985 0.007997 0.134156
v -0.029679 0.007989 0.135089
v -0.029762 0.007990 0.144032
v -0.029762 0.007990 0.144032
v -0.027476 0.007991 0.143891
v -0.028744 0.007990 0.129940
v -0.025340 0.007992 0.142744
v -0.009122 -0.007999 0.123521
v -0.017812 -0.008003 0.135129
v -0.025823 -0.008008 0.143128
v -0.002261 -0.007995 0.110745
v -0.029618 -0.008011 0.134567
v -0.028735 -0.008010 0.129941
v -0.026973 -0.008009 0.125014
v -0.027803 -0.008009 0.143914
v -0.029751 -0.008010 0.144046
v -0.029751 -0.008010 0.144046
v -0.014869 -0.008004 0.103992
v 0.000412 -0.007994 0.103496
v 0.000412 -0.007994 0.103496
v -0.002172 -0.007996 0.103496
vn -0.0006 1.0000 -0.0001
vn -0.0006 1.0000 -0.0000
vn 0.0006 -1.0000 0.0001
vn 0.0006 -1.0000 0.0000
vn 0.9128 -0.0047 0.4082
vn 0.9249 0.0097 0.3801
vn 0.8885 0.0063 0.4587
vn 0.8416 -0.0055 0.5400
vn 0.8249 0.0011 0.5653
vn 0.7618 -0.0007 0.6477
vn 0.7551 -0.0026 0.6556
vn 0.6027 0.0042 0.7979
vn 0.5496 -0.0047 0.8354
vn 0.2721 0.0034 0.9622
vn 0.0619 0.0009 0.9981
vn 0.0669 0.0002 0.9977
vn -0.9948 -0.0017 -0.1021
vn -0.9999 -0.0025 -0.0125
vn -0.9956 0.0002 -0.0934
vn -0.9999 -0.0007 -0.0093
vn -0.9669 0.0005 -0.2549
vn -0.9650 -0.0017 -0.2621
vn -0.9112 0.0006 -0.4120
vn -0.9077 -0.0018 -0.4196
vn -0.5165 -0.0045 -0.8563
vn -0.5184 -0.0021 -0.8551
vn 0.2190 -0.0030 0.9757
vn 0.9382 -0.0084 0.3459
vn -0.0329 -0.0009 -0.9995
vn -0.0001 -0.0066 -1.0000
vn -0.0210 -0.0037 -0.9998
s 1
f 26//1 24//1 27//1
f 26//1 27//1 28//2
f 26//1 28//2 29//2
f 29//2 28//2 30//2
f 31//2 32//2 34//2
f 30//2 28//2 35//2
f 30//2 35//2 31//2
f 34//2 36//2 31//2
f 31//2 36//2 30//2
f 37//3 38//4 43//3
f 41//4 38//4 39//4
f 37//3 43//3 47//3
f 37//3 47//3 40//3
f 38//4 41//4 42//4
f 38//4 42//4 43//3
f 41//4 39//4 44//4
f 41//4 44//4 45//4
f 16//5 25//6 2//7
f 16//5 2//7 13//8
f 13//8 2//7 5//9
f 13//8 5//9 6//10
f 13//8 6//10 14//11
f 14//11 6//10 11//12
f 14//11 11//12 18//13
f 9//14 33//15 46//16
f 17//17 21//18 7//19
f 7//19 21//18 8//20
f 17//17 7//19 10//21
f 17//17 10//21 19//22
f 19//22 10//21 4//23
f 19//22 4//23 15//24
f 12//25 15//24 3//26
f 3//26 15//24 4//23
f 18//13 11//12 9//14
f 18//13 9//14 20//27
f 20//27 9//14 46//16
f 50//4 48//4 40//3
f 49//28 25//6 16//5
f 50//4 40//3 47//3
f 1//29 22//30 23//31
f 12//25 3//26 23//31
f 3//26 1//29 23//31
