<?xml version="1.0" encoding="UTF-8" standalone="no"?>
<!DOCTYPE svg PUBLIC "-//W3C//DTD SVG 1.1//EN"
 "http://www.w3.org/Graphics/SVG/1.1/DTD/svg11.dtd">
<!-- Generated by graphviz version 2.40.1 (20161225.0304)
 -->
<!-- Title: G Pages: 1 -->
<svg width="578pt" height="188pt"
 viewBox="0.00 0.00 578.00 188.00" xmlns="http://www.w3.org/2000/svg" xmlns:xlink="http://www.w3.org/1999/xlink">
<g id="graph0" class="graph" transform="scale(1 1) rotate(0) translate(4 184)">
<title>G</title>
<polygon fill="#ffffff" stroke="transparent" points="-4,4 -4,-184 574,-184 574,4 -4,4"/>
<!-- /recovery_actions -->
<g id="node1" class="node">
<title>/recovery_actions</title>
<ellipse fill="#072c43" stroke="#000000" cx="259" cy="-90" rx="92.8835" ry="18"/>
<text text-anchor="middle" x="259" y="-86.3" font-family="sans-serif" font-size="14.00" fill="#a4c4bf">/recovery_actions</text>
</g>
<!-- /controller/thruster_setpoints -->
<g id="node2" class="node">
<title>/controller/thruster_setpoints</title>
<polygon fill="#fbd740" stroke="#000000" points="224,-36 0,-36 0,0 224,0 224,-36"/>
<text text-anchor="middle" x="112" y="-14.3" font-family="sans-serif" font-size="14.00" fill="#000000">/controller/thruster_setpoints</text>
</g>
<!-- /recovery_actions&#45;&gt;/controller/thruster_setpoints -->
<g id="edge1" class="edge">
<title>/recovery_actions&#45;&gt;/controller/thruster_setpoints</title>
<path fill="none" stroke="#000000" d="M224.535,-73.1192C204.6352,-63.3723 179.3573,-50.9913 157.8021,-40.4337"/>
<polygon fill="#000000" stroke="#000000" points="159.3389,-37.2891 148.8187,-36.0336 156.2598,-43.5756 159.3389,-37.2891"/>
</g>
<!-- /recovery_actions/external_recovery_action -->
<g id="node3" class="node">
<title>/recovery_actions/external_recovery_action</title>
<polygon fill="#fbd740" stroke="#000000" points="570,-36 242,-36 242,0 570,0 570,-36"/>
<text text-anchor="middle" x="406" y="-14.3" font-family="sans-serif" font-size="14.00" fill="#000000">/recovery_actions/external_recovery_action</text>
</g>
<!-- /recovery_actions&#45;&gt;/recovery_actions/external_recovery_action -->
<g id="edge2" class="edge">
<title>/recovery_actions&#45;&gt;/recovery_actions/external_recovery_action</title>
<path fill="none" stroke="#000000" d="M293.465,-73.1192C313.3648,-63.3723 338.6427,-50.9913 360.1979,-40.4337"/>
<polygon fill="#000000" stroke="#000000" points="361.7402,-43.5756 369.1813,-36.0336 358.6611,-37.2891 361.7402,-43.5756"/>
</g>
<!-- /vehicle_status -->
<g id="node4" class="node">
<title>/vehicle_status</title>
<polygon fill="#fbd740" stroke="#000000" points="320,-180 198,-180 198,-144 320,-144 320,-180"/>
<text text-anchor="middle" x="259" y="-158.3" font-family="sans-serif" font-size="14.00" fill="#000000">/vehicle_status</text>
</g>
<!-- /vehicle_status&#45;&gt;/recovery_actions -->
<g id="edge3" class="edge">
<title>/vehicle_status&#45;&gt;/recovery_actions</title>
<path fill="none" stroke="#000000" d="M259,-143.8314C259,-136.131 259,-126.9743 259,-118.4166"/>
<polygon fill="#000000" stroke="#000000" points="262.5001,-118.4132 259,-108.4133 255.5001,-118.4133 262.5001,-118.4132"/>
</g>
</g>
</svg>
