<?xml version="1.0" encoding="UTF-8" standalone="no"?>
<!DOCTYPE svg PUBLIC "-//W3C//DTD SVG 1.1//EN"
 "http://www.w3.org/Graphics/SVG/1.1/DTD/svg11.dtd">
<!-- Generated by graphviz version 2.43.0 (0)
 -->
<!-- Title: G Pages: 1 -->
<svg width="966pt" height="188pt"
 viewBox="0.00 0.00 965.50 188.00" xmlns="http://www.w3.org/2000/svg" xmlns:xlink="http://www.w3.org/1999/xlink">
<g id="graph0" class="graph" transform="scale(1 1) rotate(0) translate(4 184)">
<title>G</title>
<polygon fill="white" stroke="transparent" points="-4,4 -4,-184 961.5,-184 961.5,4 -4,4"/>
<!-- /safety_supervisor -->
<g id="node1" class="node">
<title>/safety_supervisor</title>
<ellipse fill="#072c43" stroke="black" cx="509.5" cy="-90" rx="93.68" ry="18"/>
<text text-anchor="middle" x="509.5" y="-86.3" font-family="sans-serif" font-size="14.00" fill="#a4c4bf">/safety_supervisor</text>
</g>
<!-- /controller/thruster_setpoints -->
<g id="node2" class="node">
<title>/controller/thruster_setpoints</title>
<polygon fill="#fbd740" stroke="black" points="338.5,-36 120.5,-36 120.5,0 338.5,0 338.5,-36"/>
<text text-anchor="middle" x="229.5" y="-14.3" font-family="sans-serif" font-size="14.00">/controller/thruster_setpoints</text>
</g>
<!-- /safety_supervisor&#45;&gt;/controller/thruster_setpoints -->
<g id="edge1" class="edge">
<title>/safety_supervisor&#45;&gt;/controller/thruster_setpoints</title>
<path fill="none" stroke="black" d="M454.85,-75.34C412.87,-64.84 354.35,-50.21 307.46,-38.49"/>
<polygon fill="black" stroke="black" points="308.19,-35.07 297.64,-36.04 306.49,-41.86 308.19,-35.07"/>
</g>
<!-- /safety_supervisor/rules_recovery_actions -->
<g id="node3" class="node">
<title>/safety_supervisor/rules_recovery_actions</title>
<polygon fill="#fbd740" stroke="black" points="662.5,-36 356.5,-36 356.5,0 662.5,0 662.5,-36"/>
<text text-anchor="middle" x="509.5" y="-14.3" font-family="sans-serif" font-size="14.00">/safety_supervisor/rules_recovery_actions</text>
</g>
<!-- /safety_supervisor&#45;&gt;/safety_supervisor/rules_recovery_actions -->
<g id="edge2" class="edge">
<title>/safety_supervisor&#45;&gt;/safety_supervisor/rules_recovery_actions</title>
<path fill="none" stroke="black" d="M509.5,-71.7C509.5,-63.98 509.5,-54.71 509.5,-46.11"/>
<polygon fill="black" stroke="black" points="513,-46.1 509.5,-36.1 506,-46.1 513,-46.1"/>
</g>
<!-- /safety_supervisor/status -->
<g id="node4" class="node">
<title>/safety_supervisor/status</title>
<polygon fill="#fbd740" stroke="black" points="872,-36 681,-36 681,0 872,0 872,-36"/>
<text text-anchor="middle" x="776.5" y="-14.3" font-family="sans-serif" font-size="14.00">/safety_supervisor/status</text>
</g>
<!-- /safety_supervisor&#45;&gt;/safety_supervisor/status -->
<g id="edge3" class="edge">
<title>/safety_supervisor&#45;&gt;/safety_supervisor/status</title>
<path fill="none" stroke="black" d="M562.57,-75.09C602.3,-64.67 657.18,-50.28 701.41,-38.69"/>
<polygon fill="black" stroke="black" points="702.47,-42.03 711.25,-36.11 700.69,-35.26 702.47,-42.03"/>
</g>
<!-- /captain/captain_status -->
<g id="node5" class="node">
<title>/captain/captain_status</title>
<polygon fill="#fbd740" stroke="black" points="177,-180 0,-180 0,-144 177,-144 177,-180"/>
<text text-anchor="middle" x="88.5" y="-158.3" font-family="sans-serif" font-size="14.00">/captain/captain_status</text>
</g>
<!-- /captain/captain_status&#45;&gt;/safety_supervisor -->
<g id="edge4" class="edge">
<title>/captain/captain_status&#45;&gt;/safety_supervisor</title>
<path fill="none" stroke="black" d="M177.17,-145.58C180.32,-145.05 183.44,-144.52 186.5,-144 269.47,-130 364.53,-114.46 429.93,-103.85"/>
<polygon fill="black" stroke="black" points="430.85,-107.25 440.16,-102.19 429.73,-100.34 430.85,-107.25"/>
</g>
<!-- /captain/state_feedback -->
<g id="node6" class="node">
<title>/captain/state_feedback</title>
<polygon fill="#fbd740" stroke="black" points="377.5,-180 195.5,-180 195.5,-144 377.5,-144 377.5,-180"/>
<text text-anchor="middle" x="286.5" y="-158.3" font-family="sans-serif" font-size="14.00">/captain/state_feedback</text>
</g>
<!-- /captain/state_feedback&#45;&gt;/safety_supervisor -->
<g id="edge5" class="edge">
<title>/captain/state_feedback&#45;&gt;/safety_supervisor</title>
<path fill="none" stroke="black" d="M340.77,-143.97C374.8,-133.28 418.58,-119.54 453.02,-108.73"/>
<polygon fill="black" stroke="black" points="454.44,-111.95 462.93,-105.62 452.34,-105.27 454.44,-111.95"/>
</g>
<!-- /controller/world_waypoint_req -->
<g id="node7" class="node">
<title>/controller/world_waypoint_req</title>
<polygon fill="#fbd740" stroke="black" points="623.5,-180 395.5,-180 395.5,-144 623.5,-144 623.5,-180"/>
<text text-anchor="middle" x="509.5" y="-158.3" font-family="sans-serif" font-size="14.00">/controller/world_waypoint_req</text>
</g>
<!-- /controller/world_waypoint_req&#45;&gt;/safety_supervisor -->
<g id="edge6" class="edge">
<title>/controller/world_waypoint_req&#45;&gt;/safety_supervisor</title>
<path fill="none" stroke="black" d="M509.5,-143.7C509.5,-135.98 509.5,-126.71 509.5,-118.11"/>
<polygon fill="black" stroke="black" points="513,-118.1 509.5,-108.1 506,-118.1 513,-118.1"/>
</g>
<!-- /diagnostics_agg -->
<g id="node8" class="node">
<title>/diagnostics_agg</title>
<polygon fill="#fbd740" stroke="black" points="775,-180 642,-180 642,-144 775,-144 775,-180"/>
<text text-anchor="middle" x="708.5" y="-158.3" font-family="sans-serif" font-size="14.00">/diagnostics_agg</text>
</g>
<!-- /diagnostics_agg&#45;&gt;/safety_supervisor -->
<g id="edge7" class="edge">
<title>/diagnostics_agg&#45;&gt;/safety_supervisor</title>
<path fill="none" stroke="black" d="M660.07,-143.97C630.38,-133.52 592.37,-120.15 561.96,-109.45"/>
<polygon fill="black" stroke="black" points="562.98,-106.1 552.38,-106.08 560.65,-112.7 562.98,-106.1"/>
</g>
<!-- /navigator/navigation -->
<g id="node9" class="node">
<title>/navigator/navigation</title>
<polygon fill="#fbd740" stroke="black" points="957.5,-180 793.5,-180 793.5,-144 957.5,-144 957.5,-180"/>
<text text-anchor="middle" x="875.5" y="-158.3" font-family="sans-serif" font-size="14.00">/navigator/navigation</text>
</g>
<!-- /navigator/navigation&#45;&gt;/safety_supervisor -->
<g id="edge8" class="edge">
<title>/navigator/navigation&#45;&gt;/safety_supervisor</title>
<path fill="none" stroke="black" d="M793.36,-145.29C730.37,-133.24 644.2,-116.76 583.37,-105.13"/>
<polygon fill="black" stroke="black" points="583.94,-101.67 573.46,-103.23 582.62,-108.55 583.94,-101.67"/>
</g>
</g>
</svg>
