<?xml version="1.0" encoding="UTF-8" standalone="no"?>
<!DOCTYPE svg PUBLIC "-//W3C//DTD SVG 1.1//EN"
 "http://www.w3.org/Graphics/SVG/1.1/DTD/svg11.dtd">
<!-- Generated by graphviz version 2.43.0 (0)
 -->
<!-- Title: G Pages: 1 -->
<svg width="344pt" height="188pt"
 viewBox="0.00 0.00 344.00 188.00" xmlns="http://www.w3.org/2000/svg" xmlns:xlink="http://www.w3.org/1999/xlink">
<g id="graph0" class="graph" transform="scale(1 1) rotate(0) translate(4 184)">
<title>G</title>
<polygon fill="white" stroke="transparent" points="-4,4 -4,-184 340,-184 340,4 -4,4"/>
<!-- /safety_supervisor_checker -->
<g id="node1" class="node">
<title>/safety_supervisor_checker</title>
<ellipse fill="#072c43" stroke="black" cx="197" cy="-90" rx="133.48" ry="18"/>
<text text-anchor="middle" x="197" y="-86.3" font-family="sans-serif" font-size="14.00" fill="#a4c4bf">/safety_supervisor_checker</text>
</g>
<!-- /controller/thruster_setpoints -->
<g id="node2" class="node">
<title>/controller/thruster_setpoints</title>
<polygon fill="#fbd740" stroke="black" points="218,-36 0,-36 0,0 218,0 218,-36"/>
<text text-anchor="middle" x="109" y="-14.3" font-family="sans-serif" font-size="14.00">/controller/thruster_setpoints</text>
</g>
<!-- /safety_supervisor_checker&#45;&gt;/controller/thruster_setpoints -->
<g id="edge1" class="edge">
<title>/safety_supervisor_checker&#45;&gt;/controller/thruster_setpoints</title>
<path fill="none" stroke="black" d="M175.7,-72.05C164.54,-63.18 150.7,-52.17 138.52,-42.48"/>
<polygon fill="black" stroke="black" points="140.42,-39.52 130.41,-36.03 136.06,-45 140.42,-39.52"/>
</g>
<!-- /diagnostics -->
<g id="node3" class="node">
<title>/diagnostics</title>
<polygon fill="#fbd740" stroke="black" points="336,-36 236,-36 236,0 336,0 336,-36"/>
<text text-anchor="middle" x="286" y="-14.3" font-family="sans-serif" font-size="14.00">/diagnostics</text>
</g>
<!-- /safety_supervisor_checker&#45;&gt;/diagnostics -->
<g id="edge2" class="edge">
<title>/safety_supervisor_checker&#45;&gt;/diagnostics</title>
<path fill="none" stroke="black" d="M218.54,-72.05C229.83,-63.18 243.83,-52.17 256.14,-42.48"/>
<polygon fill="black" stroke="black" points="258.65,-44.96 264.35,-36.03 254.32,-39.46 258.65,-44.96"/>
</g>
<!-- /safety_supervisor/status -->
<g id="node4" class="node">
<title>/safety_supervisor/status</title>
<polygon fill="#fbd740" stroke="black" points="292.5,-180 101.5,-180 101.5,-144 292.5,-144 292.5,-180"/>
<text text-anchor="middle" x="197" y="-158.3" font-family="sans-serif" font-size="14.00">/safety_supervisor/status</text>
</g>
<!-- /safety_supervisor/status&#45;&gt;/safety_supervisor_checker -->
<g id="edge3" class="edge">
<title>/safety_supervisor/status&#45;&gt;/safety_supervisor_checker</title>
<path fill="none" stroke="black" d="M197,-143.7C197,-135.98 197,-126.71 197,-118.11"/>
<polygon fill="black" stroke="black" points="200.5,-118.1 197,-108.1 193.5,-118.1 200.5,-118.1"/>
</g>
</g>
</svg>
