<?xml version="1.0" encoding="UTF-8" standalone="no"?>
<!DOCTYPE svg PUBLIC "-//W3C//DTD SVG 1.1//EN"
 "http://www.w3.org/Graphics/SVG/1.1/DTD/svg11.dtd">
<!-- Generated by graphviz version 2.43.0 (0)
 -->
<!-- Title: G Pages: 1 -->
<svg width="342pt" height="188pt"
 viewBox="0.00 0.00 341.50 188.00" xmlns="http://www.w3.org/2000/svg" xmlns:xlink="http://www.w3.org/1999/xlink">
<g id="graph0" class="graph" transform="scale(1 1) rotate(0) translate(4 184)">
<title>G</title>
<polygon fill="white" stroke="transparent" points="-4,4 -4,-184 337.5,-184 337.5,4 -4,4"/>
<!-- /safe_depth_altitude -->
<g id="node1" class="node">
<title>/safe_depth_altitude</title>
<ellipse fill="#072c43" stroke="black" cx="195.5" cy="-90" rx="102.08" ry="18"/>
<text text-anchor="middle" x="195.5" y="-86.3" font-family="sans-serif" font-size="14.00" fill="#a4c4bf">/safe_depth_altitude</text>
</g>
<!-- /controller/body_velocity_req -->
<g id="node2" class="node">
<title>/controller/body_velocity_req</title>
<polygon fill="#fbd740" stroke="black" points="215,-36 0,-36 0,0 215,0 215,-36"/>
<text text-anchor="middle" x="107.5" y="-14.3" font-family="sans-serif" font-size="14.00">/controller/body_velocity_req</text>
</g>
<!-- /safe_depth_altitude&#45;&gt;/controller/body_velocity_req -->
<g id="edge1" class="edge">
<title>/safe_depth_altitude&#45;&gt;/controller/body_velocity_req</title>
<path fill="none" stroke="black" d="M174.2,-72.05C163.04,-63.18 149.2,-52.17 137.02,-42.48"/>
<polygon fill="black" stroke="black" points="138.92,-39.52 128.91,-36.03 134.56,-45 138.92,-39.52"/>
</g>
<!-- /diagnostics -->
<g id="node3" class="node">
<title>/diagnostics</title>
<polygon fill="#fbd740" stroke="black" points="333.5,-36 233.5,-36 233.5,0 333.5,0 333.5,-36"/>
<text text-anchor="middle" x="283.5" y="-14.3" font-family="sans-serif" font-size="14.00">/diagnostics</text>
</g>
<!-- /safe_depth_altitude&#45;&gt;/diagnostics -->
<g id="edge2" class="edge">
<title>/safe_depth_altitude&#45;&gt;/diagnostics</title>
<path fill="none" stroke="black" d="M216.8,-72.05C227.96,-63.18 241.8,-52.17 253.98,-42.48"/>
<polygon fill="black" stroke="black" points="256.44,-45 262.09,-36.03 252.08,-39.52 256.44,-45"/>
</g>
<!-- /navigator/navigation -->
<g id="node4" class="node">
<title>/navigator/navigation</title>
<polygon fill="#fbd740" stroke="black" points="277.5,-180 113.5,-180 113.5,-144 277.5,-144 277.5,-180"/>
<text text-anchor="middle" x="195.5" y="-158.3" font-family="sans-serif" font-size="14.00">/navigator/navigation</text>
</g>
<!-- /navigator/navigation&#45;&gt;/safe_depth_altitude -->
<g id="edge3" class="edge">
<title>/navigator/navigation&#45;&gt;/safe_depth_altitude</title>
<path fill="none" stroke="black" d="M195.5,-143.7C195.5,-135.98 195.5,-126.71 195.5,-118.11"/>
<polygon fill="black" stroke="black" points="199,-118.1 195.5,-108.1 192,-118.1 199,-118.1"/>
</g>
</g>
</svg>
