<?xml version="1.0" encoding="UTF-8" standalone="no"?>
<!DOCTYPE svg PUBLIC "-//W3C//DTD SVG 1.1//EN"
 "http://www.w3.org/Graphics/SVG/1.1/DTD/svg11.dtd">
<!-- Generated by graphviz version 2.40.1 (20161225.0304)
 -->
<!-- Title: G Pages: 1 -->
<svg width="657pt" height="188pt"
 viewBox="0.00 0.00 657.00 188.00" xmlns="http://www.w3.org/2000/svg" xmlns:xlink="http://www.w3.org/1999/xlink">
<g id="graph0" class="graph" transform="scale(1 1) rotate(0) translate(4 184)">
<title>G</title>
<polygon fill="#ffffff" stroke="transparent" points="-4,4 -4,-184 653,-184 653,4 -4,4"/>
<!-- /set_zero_velocity -->
<g id="node1" class="node">
<title>/set_zero_velocity</title>
<ellipse fill="#072c43" stroke="#000000" cx="342.5" cy="-90" rx="93.6835" ry="18"/>
<text text-anchor="middle" x="342.5" y="-86.3" font-family="sans-serif" font-size="14.00" fill="#a4c4bf">/set_zero_velocity</text>
</g>
<!-- /controller/body_velocity_req -->
<g id="node2" class="node">
<title>/controller/body_velocity_req</title>
<polygon fill="#fbd740" stroke="#000000" points="454,-36 231,-36 231,0 454,0 454,-36"/>
<text text-anchor="middle" x="342.5" y="-14.3" font-family="sans-serif" font-size="14.00" fill="#000000">/controller/body_velocity_req</text>
</g>
<!-- /set_zero_velocity&#45;&gt;/controller/body_velocity_req -->
<g id="edge1" class="edge">
<title>/set_zero_velocity&#45;&gt;/controller/body_velocity_req</title>
<path fill="none" stroke="#000000" d="M336.5476,-71.8314C335.7972,-64.131 335.5763,-54.9743 335.8849,-46.4166"/>
<polygon fill="#000000" stroke="#000000" points="339.3792,-46.6161 336.524,-36.4133 332.3935,-46.1697 339.3792,-46.6161"/>
</g>
<!-- /controller/body_velocity_req&#45;&gt;/set_zero_velocity -->
<g id="edge3" class="edge">
<title>/controller/body_velocity_req&#45;&gt;/set_zero_velocity</title>
<path fill="none" stroke="#000000" d="M348.476,-36.4133C349.2071,-44.0593 349.4203,-53.1084 349.1155,-61.5726"/>
<polygon fill="#000000" stroke="#000000" points="345.6048,-61.6264 348.4524,-71.8314 352.5902,-62.078 345.6048,-61.6264"/>
</g>
<!-- /controller/body_force_req -->
<g id="node3" class="node">
<title>/controller/body_force_req</title>
<polygon fill="#fbd740" stroke="#000000" points="205,-180 0,-180 0,-144 205,-144 205,-180"/>
<text text-anchor="middle" x="102.5" y="-158.3" font-family="sans-serif" font-size="14.00" fill="#000000">/controller/body_force_req</text>
</g>
<!-- /controller/body_force_req&#45;&gt;/set_zero_velocity -->
<g id="edge2" class="edge">
<title>/controller/body_force_req&#45;&gt;/set_zero_velocity</title>
<path fill="none" stroke="#000000" d="M162.7523,-143.9243C199.1784,-132.9965 245.4657,-119.1103 281.946,-108.1662"/>
<polygon fill="#000000" stroke="#000000" points="283.3864,-111.3883 291.9589,-105.1623 281.3749,-104.6835 283.3864,-111.3883"/>
</g>
<!-- /controller/world_waypoint_req -->
<g id="node4" class="node">
<title>/controller/world_waypoint_req</title>
<polygon fill="#fbd740" stroke="#000000" points="461.5,-180 223.5,-180 223.5,-144 461.5,-144 461.5,-180"/>
<text text-anchor="middle" x="342.5" y="-158.3" font-family="sans-serif" font-size="14.00" fill="#000000">/controller/world_waypoint_req</text>
</g>
<!-- /controller/world_waypoint_req&#45;&gt;/set_zero_velocity -->
<g id="edge4" class="edge">
<title>/controller/world_waypoint_req&#45;&gt;/set_zero_velocity</title>
<path fill="none" stroke="#000000" d="M342.5,-143.8314C342.5,-136.131 342.5,-126.9743 342.5,-118.4166"/>
<polygon fill="#000000" stroke="#000000" points="346.0001,-118.4132 342.5,-108.4133 339.0001,-118.4133 346.0001,-118.4132"/>
</g>
<!-- /navigator/navigation -->
<g id="node5" class="node">
<title>/navigator/navigation</title>
<polygon fill="#fbd740" stroke="#000000" points="649,-180 480,-180 480,-144 649,-144 649,-180"/>
<text text-anchor="middle" x="564.5" y="-158.3" font-family="sans-serif" font-size="14.00" fill="#000000">/navigator/navigation</text>
</g>
<!-- /navigator/navigation&#45;&gt;/set_zero_velocity -->
<g id="edge5" class="edge">
<title>/navigator/navigation&#45;&gt;/set_zero_velocity</title>
<path fill="none" stroke="#000000" d="M508.7666,-143.9243C475.5671,-133.1569 433.512,-119.5174 400.0045,-108.6501"/>
<polygon fill="#000000" stroke="#000000" points="400.9403,-105.2742 390.3483,-105.5184 398.7808,-111.9328 400.9403,-105.2742"/>
</g>
</g>
</svg>
