<?xml version="1.0" encoding="UTF-8" standalone="no"?>
<!DOCTYPE svg PUBLIC "-//W3C//DTD SVG 1.1//EN"
 "http://www.w3.org/Graphics/SVG/1.1/DTD/svg11.dtd">
<!-- Generated by graphviz version 2.40.1 (20161225.0304)
 -->
<!-- Title: G Pages: 1 -->
<svg width="947pt" height="188pt"
 viewBox="0.00 0.00 946.50 188.00" xmlns="http://www.w3.org/2000/svg" xmlns:xlink="http://www.w3.org/1999/xlink">
<g id="graph0" class="graph" transform="scale(1 1) rotate(0) translate(4 184)">
<title>G</title>
<polygon fill="#ffffff" stroke="transparent" points="-4,4 -4,-184 942.5,-184 942.5,4 -4,4"/>
<!-- /vehicle_status_parser -->
<g id="node1" class="node">
<title>/vehicle_status_parser</title>
<ellipse fill="#072c43" stroke="#000000" cx="474" cy="-90" rx="114.2798" ry="18"/>
<text text-anchor="middle" x="474" y="-86.3" font-family="sans-serif" font-size="14.00" fill="#a4c4bf">/vehicle_status_parser</text>
</g>
<!-- /diagnostics -->
<g id="node2" class="node">
<title>/diagnostics</title>
<polygon fill="#fbd740" stroke="#000000" points="459.5,-36 358.5,-36 358.5,0 459.5,0 459.5,-36"/>
<text text-anchor="middle" x="409" y="-14.3" font-family="sans-serif" font-size="14.00" fill="#000000">/diagnostics</text>
</g>
<!-- /vehicle_status_parser&#45;&gt;/diagnostics -->
<g id="edge1" class="edge">
<title>/vehicle_status_parser&#45;&gt;/diagnostics</title>
<path fill="none" stroke="#000000" d="M457.5978,-71.8314C449.9585,-63.3694 440.7317,-53.1489 432.3793,-43.8971"/>
<polygon fill="#000000" stroke="#000000" points="434.9221,-41.4906 425.6231,-36.4133 429.7262,-46.1813 434.9221,-41.4906"/>
</g>
<!-- /vehicle_status -->
<g id="node3" class="node">
<title>/vehicle_status</title>
<polygon fill="#fbd740" stroke="#000000" points="600,-36 478,-36 478,0 600,0 600,-36"/>
<text text-anchor="middle" x="539" y="-14.3" font-family="sans-serif" font-size="14.00" fill="#000000">/vehicle_status</text>
</g>
<!-- /vehicle_status_parser&#45;&gt;/vehicle_status -->
<g id="edge2" class="edge">
<title>/vehicle_status_parser&#45;&gt;/vehicle_status</title>
<path fill="none" stroke="#000000" d="M490.4022,-71.8314C498.0415,-63.3694 507.2683,-53.1489 515.6207,-43.8971"/>
<polygon fill="#000000" stroke="#000000" points="518.2738,-46.1813 522.3769,-36.4133 513.0779,-41.4906 518.2738,-46.1813"/>
</g>
<!-- /captain/captain_status -->
<g id="node4" class="node">
<title>/captain/captain_status</title>
<polygon fill="#fbd740" stroke="#000000" points="182,-180 0,-180 0,-144 182,-144 182,-180"/>
<text text-anchor="middle" x="91" y="-158.3" font-family="sans-serif" font-size="14.00" fill="#000000">/captain/captain_status</text>
</g>
<!-- /captain/captain_status&#45;&gt;/vehicle_status_parser -->
<g id="edge3" class="edge">
<title>/captain/captain_status&#45;&gt;/vehicle_status_parser</title>
<path fill="none" stroke="#000000" d="M182.2514,-144.8457C245.4425,-132.9664 328.9152,-117.2744 390.3806,-105.7196"/>
<polygon fill="#000000" stroke="#000000" points="391.2528,-109.117 400.434,-103.8296 389.9595,-102.2375 391.2528,-109.117"/>
</g>
<!-- /captain/state_feedback -->
<g id="node5" class="node">
<title>/captain/state_feedback</title>
<polygon fill="#fbd740" stroke="#000000" points="388,-180 200,-180 200,-144 388,-144 388,-180"/>
<text text-anchor="middle" x="294" y="-158.3" font-family="sans-serif" font-size="14.00" fill="#000000">/captain/state_feedback</text>
</g>
<!-- /captain/state_feedback&#45;&gt;/vehicle_status_parser -->
<g id="edge4" class="edge">
<title>/captain/state_feedback&#45;&gt;/vehicle_status_parser</title>
<path fill="none" stroke="#000000" d="M339.4216,-143.8314C364.7441,-133.7024 396.3655,-121.0538 422.5927,-110.5629"/>
<polygon fill="#000000" stroke="#000000" points="424.0048,-113.7678 431.9897,-106.8041 421.405,-107.2684 424.0048,-113.7678"/>
</g>
<!-- /diagnostics_agg -->
<g id="node6" class="node">
<title>/diagnostics_agg</title>
<polygon fill="#fbd740" stroke="#000000" points="542,-180 406,-180 406,-144 542,-144 542,-180"/>
<text text-anchor="middle" x="474" y="-158.3" font-family="sans-serif" font-size="14.00" fill="#000000">/diagnostics_agg</text>
</g>
<!-- /diagnostics_agg&#45;&gt;/vehicle_status_parser -->
<g id="edge5" class="edge">
<title>/diagnostics_agg&#45;&gt;/vehicle_status_parser</title>
<path fill="none" stroke="#000000" d="M474,-143.8314C474,-136.131 474,-126.9743 474,-118.4166"/>
<polygon fill="#000000" stroke="#000000" points="477.5001,-118.4132 474,-108.4133 470.5001,-118.4133 477.5001,-118.4132"/>
</g>
<!-- /navigator/navigation -->
<g id="node7" class="node">
<title>/navigator/navigation</title>
<polygon fill="#fbd740" stroke="#000000" points="729.5,-180 560.5,-180 560.5,-144 729.5,-144 729.5,-180"/>
<text text-anchor="middle" x="645" y="-158.3" font-family="sans-serif" font-size="14.00" fill="#000000">/navigator/navigation</text>
</g>
<!-- /navigator/navigation&#45;&gt;/vehicle_status_parser -->
<g id="edge6" class="edge">
<title>/navigator/navigation&#45;&gt;/vehicle_status_parser</title>
<path fill="none" stroke="#000000" d="M601.8495,-143.8314C577.9864,-133.7837 548.235,-121.2568 523.4383,-110.8161"/>
<polygon fill="#000000" stroke="#000000" points="524.7745,-107.5812 514.1999,-106.9263 522.0581,-114.0327 524.7745,-107.5812"/>
</g>
<!-- /watchdog/elapsed_time -->
<g id="node8" class="node">
<title>/watchdog/elapsed_time</title>
<polygon fill="#fbd740" stroke="#000000" points="938.5,-180 747.5,-180 747.5,-144 938.5,-144 938.5,-180"/>
<text text-anchor="middle" x="843" y="-158.3" font-family="sans-serif" font-size="14.00" fill="#000000">/watchdog/elapsed_time</text>
</g>
<!-- /watchdog/elapsed_time&#45;&gt;/vehicle_status_parser -->
<g id="edge7" class="edge">
<title>/watchdog/elapsed_time&#45;&gt;/vehicle_status_parser</title>
<path fill="none" stroke="#000000" d="M750.362,-143.9243C690.6486,-132.2729 613.6994,-117.2584 556.1674,-106.0327"/>
<polygon fill="#000000" stroke="#000000" points="556.5077,-102.5331 546.0225,-104.0532 555.1671,-109.4036 556.5077,-102.5331"/>
</g>
</g>
</svg>
