<?xml version="1.0" encoding="UTF-8" standalone="no"?>
<!DOCTYPE svg PUBLIC "-//W3C//DTD SVG 1.1//EN"
 "http://www.w3.org/Graphics/SVG/1.1/DTD/svg11.dtd">
<!-- Generated by graphviz version 2.43.0 (0)
 -->
<!-- Title: G Pages: 1 -->
<svg width="326pt" height="188pt"
 viewBox="0.00 0.00 325.50 188.00" xmlns="http://www.w3.org/2000/svg" xmlns:xlink="http://www.w3.org/1999/xlink">
<g id="graph0" class="graph" transform="scale(1 1) rotate(0) translate(4 184)">
<title>G</title>
<polygon fill="white" stroke="transparent" points="-4,4 -4,-184 321.5,-184 321.5,4 -4,4"/>
<!-- /virtual_cage -->
<g id="node1" class="node">
<title>/virtual_cage</title>
<ellipse fill="#072c43" stroke="black" cx="134" cy="-90" rx="68.49" ry="18"/>
<text text-anchor="middle" x="134" y="-86.3" font-family="sans-serif" font-size="14.00" fill="#a4c4bf">/virtual_cage</text>
</g>
<!-- /diagnostics -->
<g id="node2" class="node">
<title>/diagnostics</title>
<polygon fill="#fbd740" stroke="black" points="100,-36 0,-36 0,0 100,0 100,-36"/>
<text text-anchor="middle" x="50" y="-14.3" font-family="sans-serif" font-size="14.00">/diagnostics</text>
</g>
<!-- /virtual_cage&#45;&gt;/diagnostics -->
<g id="edge1" class="edge">
<title>/virtual_cage&#45;&gt;/diagnostics</title>
<path fill="none" stroke="black" d="M114.09,-72.41C103.45,-63.54 90.16,-52.47 78.45,-42.71"/>
<polygon fill="black" stroke="black" points="80.56,-39.91 70.64,-36.2 76.08,-45.29 80.56,-39.91"/>
</g>
<!-- /virtual_cage/cage_marker -->
<g id="node3" class="node">
<title>/virtual_cage/cage_marker</title>
<polygon fill="#fbd740" stroke="black" points="317.5,-36 118.5,-36 118.5,0 317.5,0 317.5,-36"/>
<text text-anchor="middle" x="218" y="-14.3" font-family="sans-serif" font-size="14.00">/virtual_cage/cage_marker</text>
</g>
<!-- /virtual_cage&#45;&gt;/virtual_cage/cage_marker -->
<g id="edge2" class="edge">
<title>/virtual_cage&#45;&gt;/virtual_cage/cage_marker</title>
<path fill="none" stroke="black" d="M153.91,-72.41C164.55,-63.54 177.84,-52.47 189.55,-42.71"/>
<polygon fill="black" stroke="black" points="191.92,-45.29 197.36,-36.2 187.44,-39.91 191.92,-45.29"/>
</g>
<!-- /navigator/navigation -->
<g id="node4" class="node">
<title>/navigator/navigation</title>
<polygon fill="#fbd740" stroke="black" points="216,-180 52,-180 52,-144 216,-144 216,-180"/>
<text text-anchor="middle" x="134" y="-158.3" font-family="sans-serif" font-size="14.00">/navigator/navigation</text>
</g>
<!-- /navigator/navigation&#45;&gt;/virtual_cage -->
<g id="edge3" class="edge">
<title>/navigator/navigation&#45;&gt;/virtual_cage</title>
<path fill="none" stroke="black" d="M134,-143.7C134,-135.98 134,-126.71 134,-118.11"/>
<polygon fill="black" stroke="black" points="137.5,-118.1 134,-108.1 130.5,-118.1 137.5,-118.1"/>
</g>
</g>
</svg>
