<?xml version="1.0" encoding="UTF-8" standalone="no"?>
<!DOCTYPE svg PUBLIC "-//W3C//DTD SVG 1.1//EN"
 "http://www.w3.org/Graphics/SVG/1.1/DTD/svg11.dtd">
<!-- Generated by graphviz version 2.43.0 (0)
 -->
<!-- Title: G Pages: 1 -->
<svg width="354pt" height="116pt"
 viewBox="0.00 0.00 354.00 116.00" xmlns="http://www.w3.org/2000/svg" xmlns:xlink="http://www.w3.org/1999/xlink">
<g id="graph0" class="graph" transform="scale(1 1) rotate(0) translate(4 112)">
<title>G</title>
<polygon fill="white" stroke="transparent" points="-4,4 -4,-112 350,-112 350,4 -4,4"/>
<!-- /watchdog_timer -->
<g id="node1" class="node">
<title>/watchdog_timer</title>
<ellipse fill="#072c43" stroke="black" cx="141" cy="-90" rx="85.59" ry="18"/>
<text text-anchor="middle" x="141" y="-86.3" font-family="sans-serif" font-size="14.00" fill="#a4c4bf">/watchdog_timer</text>
</g>
<!-- /diagnostics -->
<g id="node2" class="node">
<title>/diagnostics</title>
<polygon fill="#fbd740" stroke="black" points="100,-36 0,-36 0,0 100,0 100,-36"/>
<text text-anchor="middle" x="50" y="-14.3" font-family="sans-serif" font-size="14.00">/diagnostics</text>
</g>
<!-- /watchdog_timer&#45;&gt;/diagnostics -->
<g id="edge1" class="edge">
<title>/watchdog_timer&#45;&gt;/diagnostics</title>
<path fill="none" stroke="black" d="M119.43,-72.41C107.79,-63.46 93.23,-52.25 80.45,-42.42"/>
<polygon fill="black" stroke="black" points="82.42,-39.52 72.36,-36.2 78.15,-45.07 82.42,-39.52"/>
</g>
<!-- /watchdog_timer/elapsed_time -->
<g id="node3" class="node">
<title>/watchdog_timer/elapsed_time</title>
<polygon fill="#fbd740" stroke="black" points="346,-36 118,-36 118,0 346,0 346,-36"/>
<text text-anchor="middle" x="232" y="-14.3" font-family="sans-serif" font-size="14.00">/watchdog_timer/elapsed_time</text>
</g>
<!-- /watchdog_timer&#45;&gt;/watchdog_timer/elapsed_time -->
<g id="edge2" class="edge">
<title>/watchdog_timer&#45;&gt;/watchdog_timer/elapsed_time</title>
<path fill="none" stroke="black" d="M162.57,-72.41C174.21,-63.46 188.77,-52.25 201.55,-42.42"/>
<polygon fill="black" stroke="black" points="203.85,-45.07 209.64,-36.2 199.58,-39.52 203.85,-45.07"/>
</g>
</g>
</svg>
