<?xml version="1.0" encoding="UTF-8" standalone="no"?>
<!DOCTYPE svg PUBLIC "-//W3C//DTD SVG 1.1//EN"
 "http://www.w3.org/Graphics/SVG/1.1/DTD/svg11.dtd">
<!-- Generated by graphviz version 2.40.1 (20161225.0304)
 -->
<!-- Title: G Pages: 1 -->
<svg width="318pt" height="116pt"
 viewBox="0.00 0.00 318.00 116.00" xmlns="http://www.w3.org/2000/svg" xmlns:xlink="http://www.w3.org/1999/xlink">
<g id="graph0" class="graph" transform="scale(1 1) rotate(0) translate(4 112)">
<title>G</title>
<polygon fill="#ffffff" stroke="transparent" points="-4,4 -4,-112 314,-112 314,4 -4,4"/>
<!-- /watchdog -->
<g id="node1" class="node">
<title>/watchdog</title>
<ellipse fill="#072c43" stroke="#000000" cx="132.5" cy="-90" rx="59.2899" ry="18"/>
<text text-anchor="middle" x="132.5" y="-86.3" font-family="sans-serif" font-size="14.00" fill="#a4c4bf">/watchdog</text>
</g>
<!-- /diagnostics -->
<g id="node2" class="node">
<title>/diagnostics</title>
<polygon fill="#fbd740" stroke="#000000" points="101,-36 0,-36 0,0 101,0 101,-36"/>
<text text-anchor="middle" x="50.5" y="-14.3" font-family="sans-serif" font-size="14.00" fill="#000000">/diagnostics</text>
</g>
<!-- /watchdog&#45;&gt;/diagnostics -->
<g id="edge1" class="edge">
<title>/watchdog&#45;&gt;/diagnostics</title>
<path fill="none" stroke="#000000" d="M113.0671,-72.937C102.8314,-63.9495 90.0885,-52.7607 78.7791,-42.8304"/>
<polygon fill="#000000" stroke="#000000" points="81.0506,-40.1672 71.2268,-36.1992 76.4319,-45.4273 81.0506,-40.1672"/>
</g>
<!-- /watchdog/elapsed_time -->
<g id="node3" class="node">
<title>/watchdog/elapsed_time</title>
<polygon fill="#fbd740" stroke="#000000" points="310,-36 119,-36 119,0 310,0 310,-36"/>
<text text-anchor="middle" x="214.5" y="-14.3" font-family="sans-serif" font-size="14.00" fill="#000000">/watchdog/elapsed_time</text>
</g>
<!-- /watchdog&#45;&gt;/watchdog/elapsed_time -->
<g id="edge2" class="edge">
<title>/watchdog&#45;&gt;/watchdog/elapsed_time</title>
<path fill="none" stroke="#000000" d="M151.9329,-72.937C162.1686,-63.9495 174.9115,-52.7607 186.2209,-42.8304"/>
<polygon fill="#000000" stroke="#000000" points="188.5681,-45.4273 193.7732,-36.1992 183.9494,-40.1672 188.5681,-45.4273"/>
</g>
</g>
</svg>
