<?xml version="1.0" encoding="UTF-8" standalone="no"?>
<!DOCTYPE svg PUBLIC "-//W3C//DTD SVG 1.1//EN"
 "http://www.w3.org/Graphics/SVG/1.1/DTD/svg11.dtd">
<!-- Generated by graphviz version 2.43.0 (0)
 -->
<!-- Title: G Pages: 1 -->
<svg width="1096pt" height="188pt"
 viewBox="0.00 0.00 1095.50 188.00" xmlns="http://www.w3.org/2000/svg" xmlns:xlink="http://www.w3.org/1999/xlink">
<g id="graph0" class="graph" transform="scale(1 1) rotate(0) translate(4 184)">
<title>G</title>
<polygon fill="white" stroke="transparent" points="-4,4 -4,-184 1091.5,-184 1091.5,4 -4,4"/>
<!-- /captain -->
<g id="node1" class="node">
<title>/captain</title>
<ellipse fill="#072c43" stroke="black" cx="534.5" cy="-90" rx="46.59" ry="18"/>
<text text-anchor="middle" x="534.5" y="-86.3" font-family="sans-serif" font-size="14.00" fill="#a4c4bf">/captain</text>
</g>
<!-- /captain/captain_status -->
<g id="node2" class="node">
<title>/captain/captain_status</title>
<polygon fill="#fbd740" stroke="black" points="177,-36 0,-36 0,0 177,0 177,-36"/>
<text text-anchor="middle" x="88.5" y="-14.3" font-family="sans-serif" font-size="14.00">/captain/captain_status</text>
</g>
<!-- /captain&#45;&gt;/captain/captain_status -->
<g id="edge1" class="edge">
<title>/captain&#45;&gt;/captain/captain_status</title>
<path fill="none" stroke="black" d="M491.6,-82.76C427.72,-73.4 303.57,-54.96 187.3,-36.11"/>
<polygon fill="black" stroke="black" points="187.59,-32.61 177.16,-34.46 186.47,-39.52 187.59,-32.61"/>
</g>
<!-- /captain/mission -->
<g id="node3" class="node">
<title>/captain/mission</title>
<polygon fill="#fbd740" stroke="black" points="325.5,-36 195.5,-36 195.5,0 325.5,0 325.5,-36"/>
<text text-anchor="middle" x="260.5" y="-14.3" font-family="sans-serif" font-size="14.00">/captain/mission</text>
</g>
<!-- /captain&#45;&gt;/captain/mission -->
<g id="edge2" class="edge">
<title>/captain&#45;&gt;/captain/mission</title>
<path fill="none" stroke="black" d="M496.69,-79.34C455.24,-68.75 387.7,-51.5 335.43,-38.14"/>
<polygon fill="black" stroke="black" points="336.08,-34.7 325.53,-35.61 334.35,-41.48 336.08,-34.7"/>
</g>
<!-- /captain/state_feedback -->
<g id="node4" class="node">
<title>/captain/state_feedback</title>
<polygon fill="#fbd740" stroke="black" points="525.5,-36 343.5,-36 343.5,0 525.5,0 525.5,-36"/>
<text text-anchor="middle" x="434.5" y="-14.3" font-family="sans-serif" font-size="14.00">/captain/state_feedback</text>
</g>
<!-- /captain&#45;&gt;/captain/state_feedback -->
<g id="edge3" class="edge">
<title>/captain&#45;&gt;/captain/state_feedback</title>
<path fill="none" stroke="black" d="M512.8,-73.81C499.55,-64.53 482.34,-52.49 467.43,-42.05"/>
<polygon fill="black" stroke="black" points="469.17,-38.99 458.97,-36.13 465.15,-44.73 469.17,-38.99"/>
</g>
<!-- /captain/trajectory_path -->
<g id="node5" class="node">
<title>/captain/trajectory_path</title>
<polygon fill="#fbd740" stroke="black" points="725.5,-36 543.5,-36 543.5,0 725.5,0 725.5,-36"/>
<text text-anchor="middle" x="634.5" y="-14.3" font-family="sans-serif" font-size="14.00">/captain/trajectory_path</text>
</g>
<!-- /captain&#45;&gt;/captain/trajectory_path -->
<g id="edge4" class="edge">
<title>/captain&#45;&gt;/captain/trajectory_path</title>
<path fill="none" stroke="black" d="M556.2,-73.81C569.45,-64.53 586.66,-52.49 601.57,-42.05"/>
<polygon fill="black" stroke="black" points="603.85,-44.73 610.03,-36.13 599.83,-38.99 603.85,-44.73"/>
</g>
<!-- /diagnostics -->
<g id="node6" class="node">
<title>/diagnostics</title>
<polygon fill="#fbd740" stroke="black" points="843.5,-36 743.5,-36 743.5,0 843.5,0 843.5,-36"/>
<text text-anchor="middle" x="793.5" y="-14.3" font-family="sans-serif" font-size="14.00">/diagnostics</text>
</g>
<!-- /captain&#45;&gt;/diagnostics -->
<g id="edge5" class="edge">
<title>/captain&#45;&gt;/diagnostics</title>
<path fill="none" stroke="black" d="M572.16,-79.28C610.37,-69.36 671.46,-53.34 733.37,-36.29"/>
<polygon fill="black" stroke="black" points="734.6,-39.58 743.31,-33.54 732.74,-32.83 734.6,-39.58"/>
</g>
<!-- /input_to_teleoperation/output -->
<g id="node7" class="node">
<title>/input_to_teleoperation/output</title>
<polygon fill="#fbd740" stroke="black" points="1087.5,-36 861.5,-36 861.5,0 1087.5,0 1087.5,-36"/>
<text text-anchor="middle" x="974.5" y="-14.3" font-family="sans-serif" font-size="14.00">/input_to_teleoperation/output</text>
</g>
<!-- /captain&#45;&gt;/input_to_teleoperation/output -->
<g id="edge6" class="edge">
<title>/captain&#45;&gt;/input_to_teleoperation/output</title>
<path fill="none" stroke="black" d="M577.09,-82.22C641.28,-72.01 765.15,-52.31 857.62,-37.59"/>
<polygon fill="black" stroke="black" points="858.27,-41.04 867.6,-36.01 857.17,-34.12 858.27,-41.04"/>
</g>
<!-- /navigator/navigation -->
<g id="node8" class="node">
<title>/navigator/navigation</title>
<polygon fill="#fbd740" stroke="black" points="616.5,-180 452.5,-180 452.5,-144 616.5,-144 616.5,-180"/>
<text text-anchor="middle" x="534.5" y="-158.3" font-family="sans-serif" font-size="14.00">/navigator/navigation</text>
</g>
<!-- /navigator/navigation&#45;&gt;/captain -->
<g id="edge7" class="edge">
<title>/navigator/navigation&#45;&gt;/captain</title>
<path fill="none" stroke="black" d="M534.5,-143.7C534.5,-135.98 534.5,-126.71 534.5,-118.11"/>
<polygon fill="black" stroke="black" points="538,-118.1 534.5,-108.1 531,-118.1 538,-118.1"/>
</g>
</g>
</svg>
