<?xml version="1.0" encoding="UTF-8" standalone="no"?>
<!DOCTYPE svg PUBLIC "-//W3C//DTD SVG 1.1//EN"
 "http://www.w3.org/Graphics/SVG/1.1/DTD/svg11.dtd">
<!-- Generated by graphviz version 2.43.0 (0)
 -->
<!-- Title: G Pages: 1 -->
<svg width="1218pt" height="188pt"
 viewBox="0.00 0.00 1218.00 188.00" xmlns="http://www.w3.org/2000/svg" xmlns:xlink="http://www.w3.org/1999/xlink">
<g id="graph0" class="graph" transform="scale(1 1) rotate(0) translate(4 184)">
<title>G</title>
<polygon fill="white" stroke="transparent" points="-4,4 -4,-184 1214,-184 1214,4 -4,4"/>
<!-- /controller -->
<g id="node1" class="node">
<title>/controller</title>
<ellipse fill="#072c43" stroke="black" cx="712" cy="-90" rx="55.79" ry="18"/>
<text text-anchor="middle" x="712" y="-86.3" font-family="sans-serif" font-size="14.00" fill="#a4c4bf">/controller</text>
</g>
<!-- /controller/merged_body_force_req -->
<g id="node2" class="node">
<title>/controller/merged_body_force_req</title>
<polygon fill="#fbd740" stroke="black" points="256,-36 0,-36 0,0 256,0 256,-36"/>
<text text-anchor="middle" x="128" y="-14.3" font-family="sans-serif" font-size="14.00">/controller/merged_body_force_req</text>
</g>
<!-- /controller&#45;&gt;/controller/merged_body_force_req -->
<g id="edge1" class="edge">
<title>/controller&#45;&gt;/controller/merged_body_force_req</title>
<path fill="none" stroke="black" d="M660.37,-82.97C579,-73.45 415.68,-54.25 266.6,-36.19"/>
<polygon fill="black" stroke="black" points="266.69,-32.68 256.34,-34.95 265.85,-39.63 266.69,-32.68"/>
</g>
<!-- /controller/merged_body_velocity_req -->
<g id="node3" class="node">
<title>/controller/merged_body_velocity_req</title>
<polygon fill="#fbd740" stroke="black" points="549.5,-36 274.5,-36 274.5,0 549.5,0 549.5,-36"/>
<text text-anchor="middle" x="412" y="-14.3" font-family="sans-serif" font-size="14.00">/controller/merged_body_velocity_req</text>
</g>
<!-- /controller&#45;&gt;/controller/merged_body_velocity_req -->
<g id="edge2" class="edge">
<title>/controller&#45;&gt;/controller/merged_body_velocity_req</title>
<path fill="none" stroke="black" d="M668.06,-78.75C622.76,-68.18 551.06,-51.45 495.04,-38.38"/>
<polygon fill="black" stroke="black" points="495.66,-34.93 485.13,-36.06 494.07,-41.74 495.66,-34.93"/>
</g>
<!-- /controller/merged_world_waypoint_req -->
<g id="node4" class="node">
<title>/controller/merged_world_waypoint_req</title>
<polygon fill="#fbd740" stroke="black" points="856,-36 568,-36 568,0 856,0 856,-36"/>
<text text-anchor="middle" x="712" y="-14.3" font-family="sans-serif" font-size="14.00">/controller/merged_world_waypoint_req</text>
</g>
<!-- /controller&#45;&gt;/controller/merged_world_waypoint_req -->
<g id="edge3" class="edge">
<title>/controller&#45;&gt;/controller/merged_world_waypoint_req</title>
<path fill="none" stroke="black" d="M712,-71.7C712,-63.98 712,-54.71 712,-46.11"/>
<polygon fill="black" stroke="black" points="715.5,-46.1 712,-36.1 708.5,-46.1 715.5,-46.1"/>
</g>
<!-- /controller/thruster_setpoints -->
<g id="node5" class="node">
<title>/controller/thruster_setpoints</title>
<polygon fill="#fbd740" stroke="black" points="1092,-36 874,-36 874,0 1092,0 1092,-36"/>
<text text-anchor="middle" x="983" y="-14.3" font-family="sans-serif" font-size="14.00">/controller/thruster_setpoints</text>
</g>
<!-- /controller&#45;&gt;/controller/thruster_setpoints -->
<g id="edge4" class="edge">
<title>/controller&#45;&gt;/controller/thruster_setpoints</title>
<path fill="none" stroke="black" d="M754.05,-78.14C794.88,-67.59 857.8,-51.34 907.36,-38.54"/>
<polygon fill="black" stroke="black" points="908.27,-41.92 917.08,-36.03 906.52,-35.14 908.27,-41.92"/>
</g>
<!-- /diagnostics -->
<g id="node6" class="node">
<title>/diagnostics</title>
<polygon fill="#fbd740" stroke="black" points="1210,-36 1110,-36 1110,0 1210,0 1210,-36"/>
<text text-anchor="middle" x="1160" y="-14.3" font-family="sans-serif" font-size="14.00">/diagnostics</text>
</g>
<!-- /controller&#45;&gt;/diagnostics -->
<g id="edge5" class="edge">
<title>/controller&#45;&gt;/diagnostics</title>
<path fill="none" stroke="black" d="M765.27,-84.21C838.61,-77.08 974.87,-61.88 1099.79,-36.09"/>
<polygon fill="black" stroke="black" points="1100.84,-39.44 1109.91,-33.97 1099.41,-32.59 1100.84,-39.44"/>
</g>
<!-- /controller/body_force_req -->
<g id="node7" class="node">
<title>/controller/body_force_req</title>
<polygon fill="#fbd740" stroke="black" points="466,-180 270,-180 270,-144 466,-144 466,-180"/>
<text text-anchor="middle" x="368" y="-158.3" font-family="sans-serif" font-size="14.00">/controller/body_force_req</text>
</g>
<!-- /controller/body_force_req&#45;&gt;/controller -->
<g id="edge6" class="edge">
<title>/controller/body_force_req&#45;&gt;/controller</title>
<path fill="none" stroke="black" d="M451.71,-143.97C515.18,-131.05 600.65,-113.66 656.04,-102.39"/>
<polygon fill="black" stroke="black" points="656.92,-105.78 666.02,-100.36 655.53,-98.92 656.92,-105.78"/>
</g>
<!-- /controller/body_velocity_req -->
<g id="node8" class="node">
<title>/controller/body_velocity_req</title>
<polygon fill="#fbd740" stroke="black" points="699.5,-180 484.5,-180 484.5,-144 699.5,-144 699.5,-180"/>
<text text-anchor="middle" x="592" y="-158.3" font-family="sans-serif" font-size="14.00">/controller/body_velocity_req</text>
</g>
<!-- /controller/body_velocity_req&#45;&gt;/controller -->
<g id="edge7" class="edge">
<title>/controller/body_velocity_req&#45;&gt;/controller</title>
<path fill="none" stroke="black" d="M621.36,-143.88C638.25,-134.02 659.59,-121.57 677.31,-111.24"/>
<polygon fill="black" stroke="black" points="679.33,-114.11 686.21,-106.05 675.81,-108.06 679.33,-114.11"/>
</g>
<!-- /controller/world_waypoint_req -->
<g id="node9" class="node">
<title>/controller/world_waypoint_req</title>
<polygon fill="#fbd740" stroke="black" points="946,-180 718,-180 718,-144 946,-144 946,-180"/>
<text text-anchor="middle" x="832" y="-158.3" font-family="sans-serif" font-size="14.00">/controller/world_waypoint_req</text>
</g>
<!-- /controller/world_waypoint_req&#45;&gt;/controller -->
<g id="edge8" class="edge">
<title>/controller/world_waypoint_req&#45;&gt;/controller</title>
<path fill="none" stroke="black" d="M802.64,-143.88C785.75,-134.02 764.41,-121.57 746.69,-111.24"/>
<polygon fill="black" stroke="black" points="748.19,-108.06 737.79,-106.05 744.67,-114.11 748.19,-108.06"/>
</g>
<!-- /navigator/navigation -->
<g id="node10" class="node">
<title>/navigator/navigation</title>
<polygon fill="#fbd740" stroke="black" points="1128,-180 964,-180 964,-144 1128,-144 1128,-180"/>
<text text-anchor="middle" x="1046" y="-158.3" font-family="sans-serif" font-size="14.00">/navigator/navigation</text>
</g>
<!-- /navigator/navigation&#45;&gt;/controller -->
<g id="edge9" class="edge">
<title>/navigator/navigation&#45;&gt;/controller</title>
<path fill="none" stroke="black" d="M964.72,-143.97C903.59,-131.15 821.43,-113.93 767.62,-102.66"/>
<polygon fill="black" stroke="black" points="768.09,-99.18 757.58,-100.55 766.65,-106.03 768.09,-99.18"/>
</g>
</g>
</svg>
