<?xml version="1.0" encoding="UTF-8" standalone="no"?>
<!DOCTYPE svg PUBLIC "-//W3C//DTD SVG 1.1//EN"
 "http://www.w3.org/Graphics/SVG/1.1/DTD/svg11.dtd">
<!-- Generated by graphviz version 2.43.0 (0)
 -->
<!-- Title: G Pages: 1 -->
<svg width="456pt" height="188pt"
 viewBox="0.00 0.00 456.00 188.00" xmlns="http://www.w3.org/2000/svg" xmlns:xlink="http://www.w3.org/1999/xlink">
<g id="graph0" class="graph" transform="scale(1 1) rotate(0) translate(4 184)">
<title>G</title>
<polygon fill="white" stroke="transparent" points="-4,4 -4,-184 452,-184 452,4 -4,4"/>
<!-- /logitech_fx10_to_teleoperation -->
<g id="node1" class="node">
<title>/logitech_fx10_to_teleoperation</title>
<ellipse fill="#072c43" stroke="black" cx="218" cy="-90" rx="151.37" ry="18"/>
<text text-anchor="middle" x="218" y="-86.3" font-family="sans-serif" font-size="14.00" fill="#a4c4bf">/logitech_fx10_to_teleoperation</text>
</g>
<!-- /input_to_teleoperation/ack -->
<g id="node2" class="node">
<title>/input_to_teleoperation/ack</title>
<polygon fill="#fbd740" stroke="black" points="204,-36 0,-36 0,0 204,0 204,-36"/>
<text text-anchor="middle" x="102" y="-14.3" font-family="sans-serif" font-size="14.00">/input_to_teleoperation/ack</text>
</g>
<!-- /logitech_fx10_to_teleoperation&#45;&gt;/input_to_teleoperation/ack -->
<g id="edge1" class="edge">
<title>/logitech_fx10_to_teleoperation&#45;&gt;/input_to_teleoperation/ack</title>
<path fill="none" stroke="black" d="M190.22,-72.23C174.95,-63.02 155.8,-51.47 139.25,-41.48"/>
<polygon fill="black" stroke="black" points="140.73,-38.29 130.36,-36.12 137.12,-44.28 140.73,-38.29"/>
</g>
<!-- /input_to_teleoperation/output -->
<g id="node3" class="node">
<title>/input_to_teleoperation/output</title>
<polygon fill="#fbd740" stroke="black" points="448,-36 222,-36 222,0 448,0 448,-36"/>
<text text-anchor="middle" x="335" y="-14.3" font-family="sans-serif" font-size="14.00">/input_to_teleoperation/output</text>
</g>
<!-- /logitech_fx10_to_teleoperation&#45;&gt;/input_to_teleoperation/output -->
<g id="edge2" class="edge">
<title>/logitech_fx10_to_teleoperation&#45;&gt;/input_to_teleoperation/output</title>
<path fill="none" stroke="black" d="M246.02,-72.23C261.43,-63.02 280.74,-51.47 297.43,-41.48"/>
<polygon fill="black" stroke="black" points="299.61,-44.25 306.39,-36.12 296.01,-38.25 299.61,-44.25"/>
</g>
<!-- /joy -->
<g id="node4" class="node">
<title>/joy</title>
<polygon fill="#fbd740" stroke="black" points="187,-180 133,-180 133,-144 187,-144 187,-180"/>
<text text-anchor="middle" x="160" y="-158.3" font-family="sans-serif" font-size="14.00">/joy</text>
</g>
<!-- /joy&#45;&gt;/logitech_fx10_to_teleoperation -->
<g id="edge3" class="edge">
<title>/joy&#45;&gt;/logitech_fx10_to_teleoperation</title>
<path fill="none" stroke="black" d="M174.34,-143.7C181.29,-135.3 189.77,-125.07 197.4,-115.86"/>
<polygon fill="black" stroke="black" points="200.14,-118.04 203.83,-108.1 194.75,-113.57 200.14,-118.04"/>
</g>
<!-- /teleoperation/ack -->
<g id="node5" class="node">
<title>/teleoperation/ack</title>
<polygon fill="#fbd740" stroke="black" points="346.5,-180 205.5,-180 205.5,-144 346.5,-144 346.5,-180"/>
<text text-anchor="middle" x="276" y="-158.3" font-family="sans-serif" font-size="14.00">/teleoperation/ack</text>
</g>
<!-- /teleoperation/ack&#45;&gt;/logitech_fx10_to_teleoperation -->
<g id="edge4" class="edge">
<title>/teleoperation/ack&#45;&gt;/logitech_fx10_to_teleoperation</title>
<path fill="none" stroke="black" d="M261.66,-143.7C254.71,-135.3 246.23,-125.07 238.6,-115.86"/>
<polygon fill="black" stroke="black" points="241.25,-113.57 232.17,-108.1 235.86,-118.04 241.25,-113.57"/>
</g>
</g>
</svg>
