<?xml version="1.0" encoding="UTF-8" standalone="no"?>
<!DOCTYPE svg PUBLIC "-//W3C//DTD SVG 1.1//EN"
 "http://www.w3.org/Graphics/SVG/1.1/DTD/svg11.dtd">
<!-- Generated by graphviz version 2.40.1 (20161225.0304)
 -->
<!-- Title: G Pages: 1 -->
<svg width="241pt" height="188pt"
 viewBox="0.00 0.00 241.00 188.00" xmlns="http://www.w3.org/2000/svg" xmlns:xlink="http://www.w3.org/1999/xlink">
<g id="graph0" class="graph" transform="scale(1 1) rotate(0) translate(4 184)">
<title>G</title>
<polygon fill="#ffffff" stroke="transparent" points="-4,4 -4,-184 237,-184 237,4 -4,4"/>
<!-- /open_loop -->
<g id="node1" class="node">
<title>/open_loop</title>
<ellipse fill="#072c43" stroke="#000000" cx="116.5" cy="-90" rx="61.99" ry="18"/>
<text text-anchor="middle" x="116.5" y="-86.3" font-family="sans-serif" font-size="14.00" fill="#a4c4bf">/open_loop</text>
</g>
<!-- /controller/thruster_setpoints -->
<g id="node2" class="node">
<title>/controller/thruster_setpoints</title>
<polygon fill="#fbd740" stroke="#000000" points="228.5,-36 4.5,-36 4.5,0 228.5,0 228.5,-36"/>
<text text-anchor="middle" x="116.5" y="-14.3" font-family="sans-serif" font-size="14.00" fill="#000000">/controller/thruster_setpoints</text>
</g>
<!-- /open_loop&#45;&gt;/controller/thruster_setpoints -->
<g id="edge1" class="edge">
<title>/open_loop&#45;&gt;/controller/thruster_setpoints</title>
<path fill="none" stroke="#000000" d="M116.5,-71.8314C116.5,-64.131 116.5,-54.9743 116.5,-46.4166"/>
<polygon fill="#000000" stroke="#000000" points="120.0001,-46.4132 116.5,-36.4133 113.0001,-46.4133 120.0001,-46.4132"/>
</g>
<!-- /input_to_teleoperation/output -->
<g id="node3" class="node">
<title>/input_to_teleoperation/output</title>
<polygon fill="#fbd740" stroke="#000000" points="233,-180 0,-180 0,-144 233,-144 233,-180"/>
<text text-anchor="middle" x="116.5" y="-158.3" font-family="sans-serif" font-size="14.00" fill="#000000">/input_to_teleoperation/output</text>
</g>
<!-- /input_to_teleoperation/output&#45;&gt;/open_loop -->
<g id="edge2" class="edge">
<title>/input_to_teleoperation/output&#45;&gt;/open_loop</title>
<path fill="none" stroke="#000000" d="M116.5,-143.8314C116.5,-136.131 116.5,-126.9743 116.5,-118.4166"/>
<polygon fill="#000000" stroke="#000000" points="120.0001,-118.4132 116.5,-108.4133 113.0001,-118.4133 120.0001,-118.4132"/>
</g>
</g>
</svg>
