<?xml version="1.0" encoding="UTF-8" standalone="no"?>
<!DOCTYPE svg PUBLIC "-//W3C//DTD SVG 1.1//EN"
 "http://www.w3.org/Graphics/SVG/1.1/DTD/svg11.dtd">
<!-- Generated by graphviz version 2.43.0 (0)
 -->
<!-- Title: G Pages: 1 -->
<svg width="884pt" height="188pt"
 viewBox="0.00 0.00 884.00 188.00" xmlns="http://www.w3.org/2000/svg" xmlns:xlink="http://www.w3.org/1999/xlink">
<g id="graph0" class="graph" transform="scale(1 1) rotate(0) translate(4 184)">
<title>G</title>
<polygon fill="white" stroke="transparent" points="-4,4 -4,-184 880,-184 880,4 -4,4"/>
<!-- /pilot -->
<g id="node1" class="node">
<title>/pilot</title>
<ellipse fill="#072c43" stroke="black" cx="529.5" cy="-90" rx="33.29" ry="18"/>
<text text-anchor="middle" x="529.5" y="-86.3" font-family="sans-serif" font-size="14.00" fill="#a4c4bf">/pilot</text>
</g>
<!-- /controller/body_velocity_req -->
<g id="node2" class="node">
<title>/controller/body_velocity_req</title>
<polygon fill="#fbd740" stroke="black" points="215,-36 0,-36 0,0 215,0 215,-36"/>
<text text-anchor="middle" x="107.5" y="-14.3" font-family="sans-serif" font-size="14.00">/controller/body_velocity_req</text>
</g>
<!-- /pilot&#45;&gt;/controller/body_velocity_req -->
<g id="edge1" class="edge">
<title>/pilot&#45;&gt;/controller/body_velocity_req</title>
<path fill="none" stroke="black" d="M498.13,-83.8C440.16,-74.18 313.7,-53.2 220.29,-37.71"/>
<polygon fill="black" stroke="black" points="220.65,-34.22 210.21,-36.04 219.51,-41.13 220.65,-34.22"/>
</g>
<!-- /controller/world_waypoint_req -->
<g id="node3" class="node">
<title>/controller/world_waypoint_req</title>
<polygon fill="#fbd740" stroke="black" points="461.5,-36 233.5,-36 233.5,0 461.5,0 461.5,-36"/>
<text text-anchor="middle" x="347.5" y="-14.3" font-family="sans-serif" font-size="14.00">/controller/world_waypoint_req</text>
</g>
<!-- /pilot&#45;&gt;/controller/world_waypoint_req -->
<g id="edge2" class="edge">
<title>/pilot&#45;&gt;/controller/world_waypoint_req</title>
<path fill="none" stroke="black" d="M503.04,-78.82C476.57,-68.64 435.08,-52.69 401.62,-39.81"/>
<polygon fill="black" stroke="black" points="402.55,-36.42 391.96,-36.1 400.04,-42.96 402.55,-36.42"/>
</g>
<!-- /diagnostics -->
<g id="node4" class="node">
<title>/diagnostics</title>
<polygon fill="#fbd740" stroke="black" points="579.5,-36 479.5,-36 479.5,0 579.5,0 579.5,-36"/>
<text text-anchor="middle" x="529.5" y="-14.3" font-family="sans-serif" font-size="14.00">/diagnostics</text>
</g>
<!-- /pilot&#45;&gt;/diagnostics -->
<g id="edge3" class="edge">
<title>/pilot&#45;&gt;/diagnostics</title>
<path fill="none" stroke="black" d="M529.5,-71.7C529.5,-63.98 529.5,-54.71 529.5,-46.11"/>
<polygon fill="black" stroke="black" points="533,-46.1 529.5,-36.1 526,-46.1 533,-46.1"/>
</g>
<!-- /pilot/goal -->
<g id="node5" class="node">
<title>/pilot/goal</title>
<polygon fill="#fbd740" stroke="black" points="683,-36 598,-36 598,0 683,0 683,-36"/>
<text text-anchor="middle" x="640.5" y="-14.3" font-family="sans-serif" font-size="14.00">/pilot/goal</text>
</g>
<!-- /pilot&#45;&gt;/pilot/goal -->
<g id="edge4" class="edge">
<title>/pilot&#45;&gt;/pilot/goal</title>
<path fill="none" stroke="black" d="M550.38,-75.83C565.71,-66.17 586.9,-52.8 604.88,-41.46"/>
<polygon fill="black" stroke="black" points="606.82,-44.38 613.41,-36.08 603.09,-38.46 606.82,-44.38"/>
</g>
<!-- /pilot/waypoint_marker -->
<g id="node6" class="node">
<title>/pilot/waypoint_marker</title>
<polygon fill="#fbd740" stroke="black" points="876,-36 701,-36 701,0 876,0 876,-36"/>
<text text-anchor="middle" x="788.5" y="-14.3" font-family="sans-serif" font-size="14.00">/pilot/waypoint_marker</text>
</g>
<!-- /pilot&#45;&gt;/pilot/waypoint_marker -->
<g id="edge5" class="edge">
<title>/pilot&#45;&gt;/pilot/waypoint_marker</title>
<path fill="none" stroke="black" d="M558.46,-81.17C596.22,-70.97 663.59,-52.76 715.71,-38.67"/>
<polygon fill="black" stroke="black" points="716.84,-41.99 725.58,-36.01 715.01,-35.24 716.84,-41.99"/>
</g>
<!-- /navigator/navigation -->
<g id="node7" class="node">
<title>/navigator/navigation</title>
<polygon fill="#fbd740" stroke="black" points="611.5,-180 447.5,-180 447.5,-144 611.5,-144 611.5,-180"/>
<text text-anchor="middle" x="529.5" y="-158.3" font-family="sans-serif" font-size="14.00">/navigator/navigation</text>
</g>
<!-- /navigator/navigation&#45;&gt;/pilot -->
<g id="edge6" class="edge">
<title>/navigator/navigation&#45;&gt;/pilot</title>
<path fill="none" stroke="black" d="M529.5,-143.7C529.5,-135.98 529.5,-126.71 529.5,-118.11"/>
<polygon fill="black" stroke="black" points="533,-118.1 529.5,-108.1 526,-118.1 533,-118.1"/>
</g>
</g>
</svg>
