<?xml version="1.0" encoding="UTF-8" standalone="no"?>
<!DOCTYPE svg PUBLIC "-//W3C//DTD SVG 1.1//EN"
 "http://www.w3.org/Graphics/SVG/1.1/DTD/svg11.dtd">
<!-- Generated by graphviz version 2.43.0 (0)
 -->
<!-- Title: G Pages: 1 -->
<svg width="983pt" height="188pt"
 viewBox="0.00 0.00 983.00 188.00" xmlns="http://www.w3.org/2000/svg" xmlns:xlink="http://www.w3.org/1999/xlink">
<g id="graph0" class="graph" transform="scale(1 1) rotate(0) translate(4 184)">
<title>G</title>
<polygon fill="white" stroke="transparent" points="-4,4 -4,-184 979,-184 979,4 -4,4"/>
<!-- /teleoperation -->
<g id="node1" class="node">
<title>/teleoperation</title>
<ellipse fill="#072c43" stroke="black" cx="583.5" cy="-90" rx="73.39" ry="18"/>
<text text-anchor="middle" x="583.5" y="-86.3" font-family="sans-serif" font-size="14.00" fill="#a4c4bf">/teleoperation</text>
</g>
<!-- /controller/body_velocity_req -->
<g id="node2" class="node">
<title>/controller/body_velocity_req</title>
<polygon fill="#fbd740" stroke="black" points="215,-36 0,-36 0,0 215,0 215,-36"/>
<text text-anchor="middle" x="107.5" y="-14.3" font-family="sans-serif" font-size="14.00">/controller/body_velocity_req</text>
</g>
<!-- /teleoperation&#45;&gt;/controller/body_velocity_req -->
<g id="edge1" class="edge">
<title>/teleoperation&#45;&gt;/controller/body_velocity_req</title>
<path fill="none" stroke="black" d="M522.25,-79.99C447.51,-69 319.49,-50.18 225.41,-36.34"/>
<polygon fill="black" stroke="black" points="225.67,-32.84 215.26,-34.85 224.65,-39.77 225.67,-32.84"/>
</g>
<!-- /controller/thruster_setpoints -->
<g id="node3" class="node">
<title>/controller/thruster_setpoints</title>
<polygon fill="#fbd740" stroke="black" points="451.5,-36 233.5,-36 233.5,0 451.5,0 451.5,-36"/>
<text text-anchor="middle" x="342.5" y="-14.3" font-family="sans-serif" font-size="14.00">/controller/thruster_setpoints</text>
</g>
<!-- /teleoperation&#45;&gt;/controller/thruster_setpoints -->
<g id="edge2" class="edge">
<title>/teleoperation&#45;&gt;/controller/thruster_setpoints</title>
<path fill="none" stroke="black" d="M538.17,-75.83C502.32,-65.42 451.69,-50.72 410.91,-38.87"/>
<polygon fill="black" stroke="black" points="411.89,-35.51 401.31,-36.08 409.94,-42.23 411.89,-35.51"/>
</g>
<!-- /controller/world_waypoint_req -->
<g id="node4" class="node">
<title>/controller/world_waypoint_req</title>
<polygon fill="#fbd740" stroke="black" points="697.5,-36 469.5,-36 469.5,0 697.5,0 697.5,-36"/>
<text text-anchor="middle" x="583.5" y="-14.3" font-family="sans-serif" font-size="14.00">/controller/world_waypoint_req</text>
</g>
<!-- /teleoperation&#45;&gt;/controller/world_waypoint_req -->
<g id="edge3" class="edge">
<title>/teleoperation&#45;&gt;/controller/world_waypoint_req</title>
<path fill="none" stroke="black" d="M583.5,-71.7C583.5,-63.98 583.5,-54.71 583.5,-46.11"/>
<polygon fill="black" stroke="black" points="587,-46.1 583.5,-36.1 580,-46.1 587,-46.1"/>
</g>
<!-- /diagnostics -->
<g id="node5" class="node">
<title>/diagnostics</title>
<polygon fill="#fbd740" stroke="black" points="815.5,-36 715.5,-36 715.5,0 815.5,0 815.5,-36"/>
<text text-anchor="middle" x="765.5" y="-14.3" font-family="sans-serif" font-size="14.00">/diagnostics</text>
</g>
<!-- /teleoperation&#45;&gt;/diagnostics -->
<g id="edge4" class="edge">
<title>/teleoperation&#45;&gt;/diagnostics</title>
<path fill="none" stroke="black" d="M621.21,-74.5C647.31,-64.46 682.44,-50.95 711.5,-39.77"/>
<polygon fill="black" stroke="black" points="713.02,-42.93 721.1,-36.08 710.51,-36.4 713.02,-42.93"/>
</g>
<!-- /teleoperation/ack -->
<g id="node6" class="node">
<title>/teleoperation/ack</title>
<polygon fill="#fbd740" stroke="black" points="975,-36 834,-36 834,0 975,0 975,-36"/>
<text text-anchor="middle" x="904.5" y="-14.3" font-family="sans-serif" font-size="14.00">/teleoperation/ack</text>
</g>
<!-- /teleoperation&#45;&gt;/teleoperation/ack -->
<g id="edge5" class="edge">
<title>/teleoperation&#45;&gt;/teleoperation/ack</title>
<path fill="none" stroke="black" d="M636.51,-77.44C687.51,-66.32 765.32,-49.35 823.98,-36.56"/>
<polygon fill="black" stroke="black" points="824.94,-39.93 833.96,-34.38 823.45,-33.09 824.94,-39.93"/>
</g>
<!-- /input_to_teleoperation/ack -->
<g id="node7" class="node">
<title>/input_to_teleoperation/ack</title>
<polygon fill="#fbd740" stroke="black" points="452.5,-180 248.5,-180 248.5,-144 452.5,-144 452.5,-180"/>
<text text-anchor="middle" x="350.5" y="-158.3" font-family="sans-serif" font-size="14.00">/input_to_teleoperation/ack</text>
</g>
<!-- /input_to_teleoperation/ack&#45;&gt;/teleoperation -->
<g id="edge6" class="edge">
<title>/input_to_teleoperation/ack&#45;&gt;/teleoperation</title>
<path fill="none" stroke="black" d="M407.2,-143.97C444.26,-132.83 492.4,-118.37 529.01,-107.37"/>
<polygon fill="black" stroke="black" points="530.44,-110.59 539.01,-104.37 528.43,-103.89 530.44,-110.59"/>
</g>
<!-- /input_to_teleoperation/output -->
<g id="node8" class="node">
<title>/input_to_teleoperation/output</title>
<polygon fill="#fbd740" stroke="black" points="696.5,-180 470.5,-180 470.5,-144 696.5,-144 696.5,-180"/>
<text text-anchor="middle" x="583.5" y="-158.3" font-family="sans-serif" font-size="14.00">/input_to_teleoperation/output</text>
</g>
<!-- /input_to_teleoperation/output&#45;&gt;/teleoperation -->
<g id="edge7" class="edge">
<title>/input_to_teleoperation/output&#45;&gt;/teleoperation</title>
<path fill="none" stroke="black" d="M583.5,-143.7C583.5,-135.98 583.5,-126.71 583.5,-118.11"/>
<polygon fill="black" stroke="black" points="587,-118.1 583.5,-108.1 580,-118.1 587,-118.1"/>
</g>
<!-- /navigator/navigation -->
<g id="node9" class="node">
<title>/navigator/navigation</title>
<polygon fill="#fbd740" stroke="black" points="878.5,-180 714.5,-180 714.5,-144 878.5,-144 878.5,-180"/>
<text text-anchor="middle" x="796.5" y="-158.3" font-family="sans-serif" font-size="14.00">/navigator/navigation</text>
</g>
<!-- /navigator/navigation&#45;&gt;/teleoperation -->
<g id="edge8" class="edge">
<title>/navigator/navigation&#45;&gt;/teleoperation</title>
<path fill="none" stroke="black" d="M744.67,-143.97C711.38,-133.03 668.32,-118.87 635.08,-107.95"/>
<polygon fill="black" stroke="black" points="636.14,-104.61 625.54,-104.82 633.95,-111.26 636.14,-104.61"/>
</g>
</g>
</svg>
