<?xml version="1.0" encoding="UTF-8" standalone="no"?>
<!DOCTYPE svg PUBLIC "-//W3C//DTD SVG 1.1//EN"
 "http://www.w3.org/Graphics/SVG/1.1/DTD/svg11.dtd">
<!-- Generated by graphviz version 2.43.0 (0)
 -->
<!-- Title: G Pages: 1 -->
<svg width="298pt" height="116pt"
 viewBox="0.00 0.00 297.50 116.00" xmlns="http://www.w3.org/2000/svg" xmlns:xlink="http://www.w3.org/1999/xlink">
<g id="graph0" class="graph" transform="scale(1 1) rotate(0) translate(4 112)">
<title>G</title>
<polygon fill="white" stroke="transparent" points="-4,4 -4,-112 293.5,-112 293.5,4 -4,4"/>
<!-- /cola2_version -->
<g id="node1" class="node">
<title>/cola2_version</title>
<ellipse fill="#072c43" stroke="black" cx="162.5" cy="-90" rx="75.29" ry="18"/>
<text text-anchor="middle" x="162.5" y="-86.3" font-family="sans-serif" font-size="14.00" fill="#a4c4bf">/cola2_version</text>
</g>
<!-- /cola2_version/version -->
<g id="node2" class="node">
<title>/cola2_version/version</title>
<polygon fill="#fbd740" stroke="black" points="171,-36 0,-36 0,0 171,0 171,-36"/>
<text text-anchor="middle" x="85.5" y="-14.3" font-family="sans-serif" font-size="14.00">/cola2_version/version</text>
</g>
<!-- /cola2_version&#45;&gt;/cola2_version/version -->
<g id="edge1" class="edge">
<title>/cola2_version&#45;&gt;/cola2_version/version</title>
<path fill="none" stroke="black" d="M144.25,-72.41C134.59,-63.63 122.55,-52.68 111.89,-42.99"/>
<polygon fill="black" stroke="black" points="114.17,-40.34 104.42,-36.2 109.47,-45.52 114.17,-40.34"/>
</g>
<!-- /diagnostics -->
<g id="node3" class="node">
<title>/diagnostics</title>
<polygon fill="#fbd740" stroke="black" points="289.5,-36 189.5,-36 189.5,0 289.5,0 289.5,-36"/>
<text text-anchor="middle" x="239.5" y="-14.3" font-family="sans-serif" font-size="14.00">/diagnostics</text>
</g>
<!-- /cola2_version&#45;&gt;/diagnostics -->
<g id="edge2" class="edge">
<title>/cola2_version&#45;&gt;/diagnostics</title>
<path fill="none" stroke="black" d="M180.75,-72.41C190.41,-63.63 202.45,-52.68 213.11,-42.99"/>
<polygon fill="black" stroke="black" points="215.53,-45.52 220.58,-36.2 210.83,-40.34 215.53,-45.52"/>
</g>
</g>
</svg>
