<?xml version="1.0" encoding="UTF-8" standalone="no"?>
<!DOCTYPE svg PUBLIC "-//W3C//DTD SVG 1.1//EN"
 "http://www.w3.org/Graphics/SVG/1.1/DTD/svg11.dtd">
<!-- Generated by graphviz version 2.43.0 (0)
 -->
<!-- Title: G Pages: 1 -->
<svg width="830pt" height="116pt"
 viewBox="0.00 0.00 830.00 116.00" xmlns="http://www.w3.org/2000/svg" xmlns:xlink="http://www.w3.org/1999/xlink">
<g id="graph0" class="graph" transform="scale(1 1) rotate(0) translate(4 112)">
<title>G</title>
<polygon fill="white" stroke="transparent" points="-4,4 -4,-112 826,-112 826,4 -4,4"/>
<!-- /computer_logger -->
<g id="node1" class="node">
<title>/computer_logger</title>
<ellipse fill="#072c43" stroke="black" cx="467" cy="-90" rx="90.18" ry="18"/>
<text text-anchor="middle" x="467" y="-86.3" font-family="sans-serif" font-size="14.00" fill="#a4c4bf">/computer_logger</text>
</g>
<!-- /computer_logger/cpu_usage -->
<g id="node2" class="node">
<title>/computer_logger/cpu_usage</title>
<polygon fill="#fbd740" stroke="black" points="218,-36 0,-36 0,0 218,0 218,-36"/>
<text text-anchor="middle" x="109" y="-14.3" font-family="sans-serif" font-size="14.00">/computer_logger/cpu_usage</text>
</g>
<!-- /computer_logger&#45;&gt;/computer_logger/cpu_usage -->
<g id="edge1" class="edge">
<title>/computer_logger&#45;&gt;/computer_logger/cpu_usage</title>
<path fill="none" stroke="black" d="M405.05,-76.89C350.25,-66.17 269.37,-50.36 206,-37.97"/>
<polygon fill="black" stroke="black" points="206.47,-34.49 195.98,-36.01 205.13,-41.36 206.47,-34.49"/>
</g>
<!-- /computer_logger/ram_usage -->
<g id="node3" class="node">
<title>/computer_logger/ram_usage</title>
<polygon fill="#fbd740" stroke="black" points="456,-36 236,-36 236,0 456,0 456,-36"/>
<text text-anchor="middle" x="346" y="-14.3" font-family="sans-serif" font-size="14.00">/computer_logger/ram_usage</text>
</g>
<!-- /computer_logger&#45;&gt;/computer_logger/ram_usage -->
<g id="edge2" class="edge">
<title>/computer_logger&#45;&gt;/computer_logger/ram_usage</title>
<path fill="none" stroke="black" d="M438.94,-72.76C422.77,-63.41 402.21,-51.52 384.54,-41.29"/>
<polygon fill="black" stroke="black" points="386.01,-38.1 375.6,-36.12 382.5,-44.16 386.01,-38.1"/>
</g>
<!-- /computer_logger/temperature -->
<g id="node4" class="node">
<title>/computer_logger/temperature</title>
<polygon fill="#fbd740" stroke="black" points="704,-36 474,-36 474,0 704,0 704,-36"/>
<text text-anchor="middle" x="589" y="-14.3" font-family="sans-serif" font-size="14.00">/computer_logger/temperature</text>
</g>
<!-- /computer_logger&#45;&gt;/computer_logger/temperature -->
<g id="edge3" class="edge">
<title>/computer_logger&#45;&gt;/computer_logger/temperature</title>
<path fill="none" stroke="black" d="M495.3,-72.76C511.6,-63.41 532.33,-51.52 550.14,-41.29"/>
<polygon fill="black" stroke="black" points="552.22,-44.14 559.16,-36.12 548.74,-38.06 552.22,-44.14"/>
</g>
<!-- /diagnostics -->
<g id="node5" class="node">
<title>/diagnostics</title>
<polygon fill="#fbd740" stroke="black" points="822,-36 722,-36 722,0 822,0 822,-36"/>
<text text-anchor="middle" x="772" y="-14.3" font-family="sans-serif" font-size="14.00">/diagnostics</text>
</g>
<!-- /computer_logger&#45;&gt;/diagnostics -->
<g id="edge4" class="edge">
<title>/computer_logger&#45;&gt;/diagnostics</title>
<path fill="none" stroke="black" d="M528.94,-76.88C576.51,-67.29 644.03,-53.07 711.85,-36.21"/>
<polygon fill="black" stroke="black" points="713,-39.53 721.85,-33.7 711.3,-32.74 713,-39.53"/>
</g>
</g>
</svg>
