<?xml version="1.0" encoding="UTF-8" standalone="no"?>
<!DOCTYPE svg PUBLIC "-//W3C//DTD SVG 1.1//EN"
 "http://www.w3.org/Graphics/SVG/1.1/DTD/svg11.dtd">
<!-- Generated by graphviz version 2.43.0 (0)
 -->
<!-- Title: G Pages: 1 -->
<svg width="394pt" height="116pt"
 viewBox="0.00 0.00 394.00 116.00" xmlns="http://www.w3.org/2000/svg" xmlns:xlink="http://www.w3.org/1999/xlink">
<g id="graph0" class="graph" transform="scale(1 1) rotate(0) translate(4 112)">
<title>G</title>
<polygon fill="white" stroke="transparent" points="-4,4 -4,-112 390,-112 390,4 -4,4"/>
<!-- /mission_reporter -->
<g id="node1" class="node">
<title>/mission_reporter</title>
<ellipse fill="#072c43" stroke="black" cx="189.5" cy="-18" rx="89.08" ry="18"/>
<text text-anchor="middle" x="189.5" y="-14.3" font-family="sans-serif" font-size="14.00" fill="#a4c4bf">/mission_reporter</text>
</g>
<!-- /captain/captain_status -->
<g id="node2" class="node">
<title>/captain/captain_status</title>
<polygon fill="#fbd740" stroke="black" points="177,-108 0,-108 0,-72 177,-72 177,-108"/>
<text text-anchor="middle" x="88.5" y="-86.3" font-family="sans-serif" font-size="14.00">/captain/captain_status</text>
</g>
<!-- /captain/captain_status&#45;&gt;/mission_reporter -->
<g id="edge1" class="edge">
<title>/captain/captain_status&#45;&gt;/mission_reporter</title>
<path fill="none" stroke="black" d="M113.21,-71.88C126.46,-62.69 142.95,-51.26 157.2,-41.38"/>
<polygon fill="black" stroke="black" points="159.52,-44.04 165.74,-35.47 155.53,-38.28 159.52,-44.04"/>
</g>
<!-- /safety_supervisor/status -->
<g id="node3" class="node">
<title>/safety_supervisor/status</title>
<polygon fill="#fbd740" stroke="black" points="386,-108 195,-108 195,-72 386,-72 386,-108"/>
<text text-anchor="middle" x="290.5" y="-86.3" font-family="sans-serif" font-size="14.00">/safety_supervisor/status</text>
</g>
<!-- /safety_supervisor/status&#45;&gt;/mission_reporter -->
<g id="edge2" class="edge">
<title>/safety_supervisor/status&#45;&gt;/mission_reporter</title>
<path fill="none" stroke="black" d="M265.79,-71.88C252.54,-62.69 236.05,-51.26 221.8,-41.38"/>
<polygon fill="black" stroke="black" points="223.47,-38.28 213.26,-35.47 219.48,-44.04 223.47,-38.28"/>
</g>
</g>
</svg>
