<?xml version="1.0" encoding="UTF-8" standalone="no"?>
<!DOCTYPE svg PUBLIC "-//W3C//DTD SVG 1.1//EN"
 "http://www.w3.org/Graphics/SVG/1.1/DTD/svg11.dtd">
<!-- Generated by graphviz version 2.43.0 (0)
 -->
<!-- Title: G Pages: 1 -->
<svg width="348pt" height="116pt"
 viewBox="0.00 0.00 347.50 116.00" xmlns="http://www.w3.org/2000/svg" xmlns:xlink="http://www.w3.org/1999/xlink">
<g id="graph0" class="graph" transform="scale(1 1) rotate(0) translate(4 112)">
<title>G</title>
<polygon fill="white" stroke="transparent" points="-4,4 -4,-112 343.5,-112 343.5,4 -4,4"/>
<!-- /param_logger -->
<g id="node1" class="node">
<title>/param_logger</title>
<ellipse fill="#072c43" stroke="black" cx="139" cy="-90" rx="76.09" ry="18"/>
<text text-anchor="middle" x="139" y="-86.3" font-family="sans-serif" font-size="14.00" fill="#a4c4bf">/param_logger</text>
</g>
<!-- /diagnostics -->
<g id="node2" class="node">
<title>/diagnostics</title>
<polygon fill="#fbd740" stroke="black" points="100,-36 0,-36 0,0 100,0 100,-36"/>
<text text-anchor="middle" x="50" y="-14.3" font-family="sans-serif" font-size="14.00">/diagnostics</text>
</g>
<!-- /param_logger&#45;&gt;/diagnostics -->
<g id="edge1" class="edge">
<title>/param_logger&#45;&gt;/diagnostics</title>
<path fill="none" stroke="black" d="M117.91,-72.41C106.52,-63.46 92.28,-52.25 79.78,-42.42"/>
<polygon fill="black" stroke="black" points="81.89,-39.63 71.87,-36.2 77.57,-45.13 81.89,-39.63"/>
</g>
<!-- /param_logger/params_string -->
<g id="node3" class="node">
<title>/param_logger/params_string</title>
<polygon fill="#fbd740" stroke="black" points="339.5,-36 118.5,-36 118.5,0 339.5,0 339.5,-36"/>
<text text-anchor="middle" x="229" y="-14.3" font-family="sans-serif" font-size="14.00">/param_logger/params_string</text>
</g>
<!-- /param_logger&#45;&gt;/param_logger/params_string -->
<g id="edge2" class="edge">
<title>/param_logger&#45;&gt;/param_logger/params_string</title>
<path fill="none" stroke="black" d="M160.33,-72.41C171.84,-63.46 186.24,-52.25 198.88,-42.42"/>
<polygon fill="black" stroke="black" points="201.14,-45.1 206.88,-36.2 196.84,-39.58 201.14,-45.1"/>
</g>
</g>
</svg>
