<?xml version="1.0" encoding="UTF-8" standalone="no"?>
<!DOCTYPE svg PUBLIC "-//W3C//DTD SVG 1.1//EN"
 "http://www.w3.org/Graphics/SVG/1.1/DTD/svg11.dtd">
<!-- Generated by graphviz version 2.43.0 (0)
 -->
<!-- Title: G Pages: 1 -->
<svg width="976pt" height="188pt"
 viewBox="0.00 0.00 976.00 188.00" xmlns="http://www.w3.org/2000/svg" xmlns:xlink="http://www.w3.org/1999/xlink">
<g id="graph0" class="graph" transform="scale(1 1) rotate(0) translate(4 184)">
<title>G</title>
<polygon fill="white" stroke="transparent" points="-4,4 -4,-184 972,-184 972,4 -4,4"/>
<!-- /dynamics -->
<g id="node1" class="node">
<title>/dynamics</title>
<ellipse fill="#072c43" stroke="black" cx="482" cy="-90" rx="57.39" ry="18"/>
<text text-anchor="middle" x="482" y="-86.3" font-family="sans-serif" font-size="14.00" fill="#a4c4bf">/dynamics</text>
</g>
<!-- /diagnostics -->
<g id="node2" class="node">
<title>/diagnostics</title>
<polygon fill="#fbd740" stroke="black" points="288,-36 188,-36 188,0 288,0 288,-36"/>
<text text-anchor="middle" x="238" y="-14.3" font-family="sans-serif" font-size="14.00">/diagnostics</text>
</g>
<!-- /dynamics&#45;&gt;/diagnostics -->
<g id="edge1" class="edge">
<title>/dynamics&#45;&gt;/diagnostics</title>
<path fill="none" stroke="black" d="M441.21,-77.33C405.85,-67.21 353.02,-52.09 298.12,-36.32"/>
<polygon fill="black" stroke="black" points="298.79,-32.87 288.21,-33.47 296.86,-39.6 298.79,-32.87"/>
</g>
<!-- /dynamics/odometry -->
<g id="node3" class="node">
<title>/dynamics/odometry</title>
<polygon fill="#fbd740" stroke="black" points="465.5,-36 306.5,-36 306.5,0 465.5,0 465.5,-36"/>
<text text-anchor="middle" x="386" y="-14.3" font-family="sans-serif" font-size="14.00">/dynamics/odometry</text>
</g>
<!-- /dynamics&#45;&gt;/dynamics/odometry -->
<g id="edge2" class="edge">
<title>/dynamics&#45;&gt;/dynamics/odometry</title>
<path fill="none" stroke="black" d="M460.22,-73.12C447.66,-63.96 431.66,-52.29 417.73,-42.14"/>
<polygon fill="black" stroke="black" points="419.52,-39.11 409.37,-36.04 415.39,-44.76 419.52,-39.11"/>
</g>
<!-- /gazebo/set_model_state -->
<g id="node4" class="node">
<title>/gazebo/set_model_state</title>
<polygon fill="#fbd740" stroke="black" points="672,-36 484,-36 484,0 672,0 672,-36"/>
<text text-anchor="middle" x="578" y="-14.3" font-family="sans-serif" font-size="14.00">/gazebo/set_model_state</text>
</g>
<!-- /dynamics&#45;&gt;/gazebo/set_model_state -->
<g id="edge3" class="edge">
<title>/dynamics&#45;&gt;/gazebo/set_model_state</title>
<path fill="none" stroke="black" d="M503.78,-73.12C516.34,-63.96 532.34,-52.29 546.27,-42.14"/>
<polygon fill="black" stroke="black" points="548.61,-44.76 554.63,-36.04 544.48,-39.11 548.61,-44.76"/>
</g>
<!-- /setpoints_selector/thruster_setpoints -->
<g id="node5" class="node">
<title>/setpoints_selector/thruster_setpoints</title>
<polygon fill="#fbd740" stroke="black" points="968,-36 690,-36 690,0 968,0 968,-36"/>
<text text-anchor="middle" x="829" y="-14.3" font-family="sans-serif" font-size="14.00">/setpoints_selector/thruster_setpoints</text>
</g>
<!-- /dynamics&#45;&gt;/setpoints_selector/thruster_setpoints -->
<g id="edge4" class="edge">
<title>/dynamics&#45;&gt;/setpoints_selector/thruster_setpoints</title>
<path fill="none" stroke="black" d="M528.8,-79.56C581.23,-68.98 667.62,-51.56 734.29,-38.11"/>
<polygon fill="black" stroke="black" points="735.29,-41.47 744.4,-36.07 733.9,-34.61 735.29,-41.47"/>
</g>
<!-- /controller/merged_body_force_req -->
<g id="node6" class="node">
<title>/controller/merged_body_force_req</title>
<polygon fill="#fbd740" stroke="black" points="256,-180 0,-180 0,-144 256,-144 256,-180"/>
<text text-anchor="middle" x="128" y="-158.3" font-family="sans-serif" font-size="14.00">/controller/merged_body_force_req</text>
</g>
<!-- /controller/merged_body_force_req&#45;&gt;/dynamics -->
<g id="edge5" class="edge">
<title>/controller/merged_body_force_req&#45;&gt;/dynamics</title>
<path fill="none" stroke="black" d="M214.15,-143.97C279.59,-131.02 367.78,-113.59 424.77,-102.32"/>
<polygon fill="black" stroke="black" points="425.56,-105.73 434.69,-100.36 424.2,-98.86 425.56,-105.73"/>
</g>
<!-- /controller/thruster_setpoints -->
<g id="node7" class="node">
<title>/controller/thruster_setpoints</title>
<polygon fill="#fbd740" stroke="black" points="492,-180 274,-180 274,-144 492,-144 492,-180"/>
<text text-anchor="middle" x="383" y="-158.3" font-family="sans-serif" font-size="14.00">/controller/thruster_setpoints</text>
</g>
<!-- /controller/thruster_setpoints&#45;&gt;/dynamics -->
<g id="edge6" class="edge">
<title>/controller/thruster_setpoints&#45;&gt;/dynamics</title>
<path fill="none" stroke="black" d="M407.22,-143.88C420.49,-134.49 437.08,-122.76 451.26,-112.74"/>
<polygon fill="black" stroke="black" points="453.58,-115.38 459.72,-106.75 449.54,-109.67 453.58,-115.38"/>
</g>
<!-- /dynamics/current -->
<g id="node8" class="node">
<title>/dynamics/current</title>
<polygon fill="#fbd740" stroke="black" points="652,-180 510,-180 510,-144 652,-144 652,-180"/>
<text text-anchor="middle" x="581" y="-158.3" font-family="sans-serif" font-size="14.00">/dynamics/current</text>
</g>
<!-- /dynamics/current&#45;&gt;/dynamics -->
<g id="edge7" class="edge">
<title>/dynamics/current&#45;&gt;/dynamics</title>
<path fill="none" stroke="black" d="M556.78,-143.88C543.51,-134.49 526.92,-122.76 512.74,-112.74"/>
<polygon fill="black" stroke="black" points="514.46,-109.67 504.28,-106.75 510.42,-115.38 514.46,-109.67"/>
</g>
<!-- /dynamics/pose_overwrite -->
<g id="node9" class="node">
<title>/dynamics/pose_overwrite</title>
<polygon fill="#fbd740" stroke="black" points="867.5,-180 670.5,-180 670.5,-144 867.5,-144 867.5,-180"/>
<text text-anchor="middle" x="769" y="-158.3" font-family="sans-serif" font-size="14.00">/dynamics/pose_overwrite</text>
</g>
<!-- /dynamics/pose_overwrite&#45;&gt;/dynamics -->
<g id="edge8" class="edge">
<title>/dynamics/pose_overwrite&#45;&gt;/dynamics</title>
<path fill="none" stroke="black" d="M699.16,-143.97C648.77,-131.67 581.74,-115.33 535.56,-104.06"/>
<polygon fill="black" stroke="black" points="536.28,-100.64 525.74,-101.67 534.62,-107.44 536.28,-100.64"/>
</g>
</g>
</svg>
