<?xml version="1.0" encoding="UTF-8" standalone="no"?>
<!DOCTYPE svg PUBLIC "-//W3C//DTD SVG 1.1//EN"
 "http://www.w3.org/Graphics/SVG/1.1/DTD/svg11.dtd">
<!-- Generated by graphviz version 2.43.0 (0)
 -->
<!-- Title: G Pages: 1 -->
<svg width="1351pt" height="188pt"
 viewBox="0.00 0.00 1351.00 188.00" xmlns="http://www.w3.org/2000/svg" xmlns:xlink="http://www.w3.org/1999/xlink">
<g id="graph0" class="graph" transform="scale(1 1) rotate(0) translate(4 184)">
<title>G</title>
<polygon fill="white" stroke="transparent" points="-4,4 -4,-184 1347,-184 1347,4 -4,4"/>
<!-- /sim_auv_nav_sensors -->
<g id="node1" class="node">
<title>/sim_auv_nav_sensors</title>
<ellipse fill="#072c43" stroke="black" cx="538" cy="-90" rx="111.28" ry="18"/>
<text text-anchor="middle" x="538" y="-86.3" font-family="sans-serif" font-size="14.00" fill="#a4c4bf">/sim_auv_nav_sensors</text>
</g>
<!-- /diagnostics -->
<g id="node2" class="node">
<title>/diagnostics</title>
<polygon fill="#fbd740" stroke="black" points="100,-36 0,-36 0,0 100,0 100,-36"/>
<text text-anchor="middle" x="50" y="-14.3" font-family="sans-serif" font-size="14.00">/diagnostics</text>
</g>
<!-- /sim_auv_nav_sensors&#45;&gt;/diagnostics -->
<g id="edge1" class="edge">
<title>/sim_auv_nav_sensors&#45;&gt;/diagnostics</title>
<path fill="none" stroke="black" d="M440.17,-81.34C355.15,-73.66 228.64,-59.79 110.06,-36.04"/>
<polygon fill="black" stroke="black" points="110.57,-32.57 100.08,-34.01 109.18,-39.43 110.57,-32.57"/>
</g>
<!-- /navigator/altitude -->
<g id="node3" class="node">
<title>/navigator/altitude</title>
<polygon fill="#fbd740" stroke="black" points="262,-36 118,-36 118,0 262,0 262,-36"/>
<text text-anchor="middle" x="190" y="-14.3" font-family="sans-serif" font-size="14.00">/navigator/altitude</text>
</g>
<!-- /sim_auv_nav_sensors&#45;&gt;/navigator/altitude -->
<g id="edge2" class="edge">
<title>/sim_auv_nav_sensors&#45;&gt;/navigator/altitude</title>
<path fill="none" stroke="black" d="M469.92,-75.7C418.26,-65.56 345.21,-51.11 272.24,-36.24"/>
<polygon fill="black" stroke="black" points="272.91,-32.81 262.42,-34.24 271.51,-39.67 272.91,-32.81"/>
</g>
<!-- /navigator/dvl -->
<g id="node4" class="node">
<title>/navigator/dvl</title>
<polygon fill="#fbd740" stroke="black" points="393.5,-36 280.5,-36 280.5,0 393.5,0 393.5,-36"/>
<text text-anchor="middle" x="337" y="-14.3" font-family="sans-serif" font-size="14.00">/navigator/dvl</text>
</g>
<!-- /sim_auv_nav_sensors&#45;&gt;/navigator/dvl -->
<g id="edge3" class="edge">
<title>/sim_auv_nav_sensors&#45;&gt;/navigator/dvl</title>
<path fill="none" stroke="black" d="M493.39,-73.46C464.57,-63.43 426.75,-50.26 395.52,-39.38"/>
<polygon fill="black" stroke="black" points="396.66,-36.07 386.06,-36.09 394.35,-42.68 396.66,-36.07"/>
</g>
<!-- /navigator/gps -->
<g id="node5" class="node">
<title>/navigator/gps</title>
<polygon fill="#fbd740" stroke="black" points="528.5,-36 411.5,-36 411.5,0 528.5,0 528.5,-36"/>
<text text-anchor="middle" x="470" y="-14.3" font-family="sans-serif" font-size="14.00">/navigator/gps</text>
</g>
<!-- /sim_auv_nav_sensors&#45;&gt;/navigator/gps -->
<g id="edge4" class="edge">
<title>/sim_auv_nav_sensors&#45;&gt;/navigator/gps</title>
<path fill="none" stroke="black" d="M521.54,-72.05C513.23,-63.5 502.99,-52.96 493.83,-43.54"/>
<polygon fill="black" stroke="black" points="496.26,-41.01 486.78,-36.28 491.24,-45.89 496.26,-41.01"/>
</g>
<!-- /navigator/imu -->
<g id="node6" class="node">
<title>/navigator/imu</title>
<polygon fill="#fbd740" stroke="black" points="665,-36 547,-36 547,0 665,0 665,-36"/>
<text text-anchor="middle" x="606" y="-14.3" font-family="sans-serif" font-size="14.00">/navigator/imu</text>
</g>
<!-- /sim_auv_nav_sensors&#45;&gt;/navigator/imu -->
<g id="edge5" class="edge">
<title>/sim_auv_nav_sensors&#45;&gt;/navigator/imu</title>
<path fill="none" stroke="black" d="M554.46,-72.05C562.77,-63.5 573.01,-52.96 582.17,-43.54"/>
<polygon fill="black" stroke="black" points="584.76,-45.89 589.22,-36.28 579.74,-41.01 584.76,-45.89"/>
</g>
<!-- /navigator/pressure -->
<g id="node7" class="node">
<title>/navigator/pressure</title>
<polygon fill="#fbd740" stroke="black" points="835,-36 683,-36 683,0 835,0 835,-36"/>
<text text-anchor="middle" x="759" y="-14.3" font-family="sans-serif" font-size="14.00">/navigator/pressure</text>
</g>
<!-- /sim_auv_nav_sensors&#45;&gt;/navigator/pressure -->
<g id="edge6" class="edge">
<title>/sim_auv_nav_sensors&#45;&gt;/navigator/pressure</title>
<path fill="none" stroke="black" d="M586.23,-73.72C618.27,-63.58 660.68,-50.14 695.47,-39.12"/>
<polygon fill="black" stroke="black" points="696.58,-42.44 705.06,-36.09 694.47,-35.77 696.58,-42.44"/>
</g>
<!-- /navigator/sound_velocity -->
<g id="node8" class="node">
<title>/navigator/sound_velocity</title>
<polygon fill="#fbd740" stroke="black" points="1047,-36 853,-36 853,0 1047,0 1047,-36"/>
<text text-anchor="middle" x="950" y="-14.3" font-family="sans-serif" font-size="14.00">/navigator/sound_velocity</text>
</g>
<!-- /sim_auv_nav_sensors&#45;&gt;/navigator/sound_velocity -->
<g id="edge7" class="edge">
<title>/sim_auv_nav_sensors&#45;&gt;/navigator/sound_velocity</title>
<path fill="none" stroke="black" d="M611.66,-76.49C675.99,-65.56 770.17,-49.55 842.85,-37.21"/>
<polygon fill="black" stroke="black" points="843.68,-40.61 852.95,-35.49 842.51,-33.71 843.68,-40.61"/>
</g>
<!-- /valeport_sound_velocity/temperature -->
<g id="node9" class="node">
<title>/valeport_sound_velocity/temperature</title>
<polygon fill="#fbd740" stroke="black" points="1343,-36 1065,-36 1065,0 1343,0 1343,-36"/>
<text text-anchor="middle" x="1204" y="-14.3" font-family="sans-serif" font-size="14.00">/valeport_sound_velocity/temperature</text>
</g>
<!-- /sim_auv_nav_sensors&#45;&gt;/valeport_sound_velocity/temperature -->
<g id="edge8" class="edge">
<title>/sim_auv_nav_sensors&#45;&gt;/valeport_sound_velocity/temperature</title>
<path fill="none" stroke="black" d="M630.2,-79.91C731.6,-69.84 899.63,-52.92 1054.76,-36.13"/>
<polygon fill="black" stroke="black" points="1055.4,-39.58 1064.96,-35.02 1054.64,-32.62 1055.4,-39.58"/>
</g>
<!-- /dynamics/altitude -->
<g id="node10" class="node">
<title>/dynamics/altitude</title>
<polygon fill="#fbd740" stroke="black" points="525.5,-180 380.5,-180 380.5,-144 525.5,-144 525.5,-180"/>
<text text-anchor="middle" x="453" y="-158.3" font-family="sans-serif" font-size="14.00">/dynamics/altitude</text>
</g>
<!-- /dynamics/altitude&#45;&gt;/sim_auv_nav_sensors -->
<g id="edge9" class="edge">
<title>/dynamics/altitude&#45;&gt;/sim_auv_nav_sensors</title>
<path fill="none" stroke="black" d="M474.01,-143.7C484.8,-134.81 498.09,-123.87 509.76,-114.26"/>
<polygon fill="black" stroke="black" points="512.03,-116.92 517.52,-107.86 507.58,-111.52 512.03,-116.92"/>
</g>
<!-- /dynamics/odometry -->
<g id="node11" class="node">
<title>/dynamics/odometry</title>
<polygon fill="#fbd740" stroke="black" points="702.5,-180 543.5,-180 543.5,-144 702.5,-144 702.5,-180"/>
<text text-anchor="middle" x="623" y="-158.3" font-family="sans-serif" font-size="14.00">/dynamics/odometry</text>
</g>
<!-- /dynamics/odometry&#45;&gt;/sim_auv_nav_sensors -->
<g id="edge10" class="edge">
<title>/dynamics/odometry&#45;&gt;/sim_auv_nav_sensors</title>
<path fill="none" stroke="black" d="M601.99,-143.7C591.2,-134.81 577.91,-123.87 566.24,-114.26"/>
<polygon fill="black" stroke="black" points="568.42,-111.52 558.48,-107.86 563.97,-116.92 568.42,-111.52"/>
</g>
</g>
</svg>
