<?xml version="1.0" encoding="UTF-8" standalone="no"?>
<!DOCTYPE svg PUBLIC "-//W3C//DTD SVG 1.1//EN"
 "http://www.w3.org/Graphics/SVG/1.1/DTD/svg11.dtd">
<!-- Generated by graphviz version 2.43.0 (0)
 -->
<!-- Title: G Pages: 1 -->
<svg width="2046pt" height="116pt"
 viewBox="0.00 0.00 2045.50 116.00" xmlns="http://www.w3.org/2000/svg" xmlns:xlink="http://www.w3.org/1999/xlink">
<g id="graph0" class="graph" transform="scale(1 1) rotate(0) translate(4 112)">
<title>G</title>
<polygon fill="white" stroke="transparent" points="-4,4 -4,-112 2041.5,-112 2041.5,4 -4,4"/>
<!-- /sim_internal_sensors -->
<g id="node1" class="node">
<title>/sim_internal_sensors</title>
<ellipse fill="#072c43" stroke="black" cx="1085" cy="-90" rx="107.78" ry="18"/>
<text text-anchor="middle" x="1085" y="-86.3" font-family="sans-serif" font-size="14.00" fill="#a4c4bf">/sim_internal_sensors</text>
</g>
<!-- /batteries/status -->
<g id="node2" class="node">
<title>/batteries/status</title>
<polygon fill="#fbd740" stroke="black" points="130,-36 0,-36 0,0 130,0 130,-36"/>
<text text-anchor="middle" x="65" y="-14.3" font-family="sans-serif" font-size="14.00">/batteries/status</text>
</g>
<!-- /sim_internal_sensors&#45;&gt;/batteries/status -->
<g id="edge1" class="edge">
<title>/sim_internal_sensors&#45;&gt;/batteries/status</title>
<path fill="none" stroke="black" d="M977.31,-88.9C803.02,-87.42 448.43,-78.97 140.28,-36.04"/>
<polygon fill="black" stroke="black" points="140.65,-32.55 130.26,-34.62 139.67,-39.48 140.65,-32.55"/>
</g>
<!-- /batteries_cylinder/humidity -->
<g id="node3" class="node">
<title>/batteries_cylinder/humidity</title>
<polygon fill="#fbd740" stroke="black" points="359.5,-36 148.5,-36 148.5,0 359.5,0 359.5,-36"/>
<text text-anchor="middle" x="254" y="-14.3" font-family="sans-serif" font-size="14.00">/batteries_cylinder/humidity</text>
</g>
<!-- /sim_internal_sensors&#45;&gt;/batteries_cylinder/humidity -->
<g id="edge2" class="edge">
<title>/sim_internal_sensors&#45;&gt;/batteries_cylinder/humidity</title>
<path fill="none" stroke="black" d="M983.26,-83.86C846.12,-76.4 594.16,-60.81 369.55,-36.13"/>
<polygon fill="black" stroke="black" points="369.87,-32.64 359.55,-35.02 369.1,-39.6 369.87,-32.64"/>
</g>
<!-- /batteries_cylinder/pressure -->
<g id="node4" class="node">
<title>/batteries_cylinder/pressure</title>
<polygon fill="#fbd740" stroke="black" points="586.5,-36 377.5,-36 377.5,0 586.5,0 586.5,-36"/>
<text text-anchor="middle" x="482" y="-14.3" font-family="sans-serif" font-size="14.00">/batteries_cylinder/pressure</text>
</g>
<!-- /sim_internal_sensors&#45;&gt;/batteries_cylinder/pressure -->
<g id="edge3" class="edge">
<title>/sim_internal_sensors&#45;&gt;/batteries_cylinder/pressure</title>
<path fill="none" stroke="black" d="M993.85,-80.22C897.74,-70.72 741.68,-54.57 596.63,-36.05"/>
<polygon fill="black" stroke="black" points="597.02,-32.57 586.65,-34.77 596.13,-39.52 597.02,-32.57"/>
</g>
<!-- /batteries_cylinder/temperature -->
<g id="node5" class="node">
<title>/batteries_cylinder/temperature</title>
<polygon fill="#fbd740" stroke="black" points="841,-36 605,-36 605,0 841,0 841,-36"/>
<text text-anchor="middle" x="723" y="-14.3" font-family="sans-serif" font-size="14.00">/batteries_cylinder/temperature</text>
</g>
<!-- /sim_internal_sensors&#45;&gt;/batteries_cylinder/temperature -->
<g id="edge4" class="edge">
<title>/sim_internal_sensors&#45;&gt;/batteries_cylinder/temperature</title>
<path fill="none" stroke="black" d="M1017.34,-75.92C962.07,-65.23 883.22,-49.98 821.04,-37.96"/>
<polygon fill="black" stroke="black" points="821.69,-34.52 811.21,-36.06 820.36,-41.39 821.69,-34.52"/>
</g>
<!-- /batteries_cylinder/water_detected -->
<g id="node6" class="node">
<title>/batteries_cylinder/water_detected</title>
<polygon fill="#fbd740" stroke="black" points="1115,-36 859,-36 859,0 1115,0 1115,-36"/>
<text text-anchor="middle" x="987" y="-14.3" font-family="sans-serif" font-size="14.00">/batteries_cylinder/water_detected</text>
</g>
<!-- /sim_internal_sensors&#45;&gt;/batteries_cylinder/water_detected -->
<g id="edge5" class="edge">
<title>/sim_internal_sensors&#45;&gt;/batteries_cylinder/water_detected</title>
<path fill="none" stroke="black" d="M1061.78,-72.41C1049.12,-63.37 1033.26,-52.04 1019.4,-42.14"/>
<polygon fill="black" stroke="black" points="1021.25,-39.17 1011.08,-36.2 1017.18,-44.86 1021.25,-39.17"/>
</g>
<!-- /diagnostics -->
<g id="node7" class="node">
<title>/diagnostics</title>
<polygon fill="#fbd740" stroke="black" points="1233,-36 1133,-36 1133,0 1233,0 1233,-36"/>
<text text-anchor="middle" x="1183" y="-14.3" font-family="sans-serif" font-size="14.00">/diagnostics</text>
</g>
<!-- /sim_internal_sensors&#45;&gt;/diagnostics -->
<g id="edge6" class="edge">
<title>/sim_internal_sensors&#45;&gt;/diagnostics</title>
<path fill="none" stroke="black" d="M1108.22,-72.41C1120.88,-63.37 1136.74,-52.04 1150.6,-42.14"/>
<polygon fill="black" stroke="black" points="1152.82,-44.86 1158.92,-36.2 1148.75,-39.17 1152.82,-44.86"/>
</g>
<!-- /pc_cylinder/humidity -->
<g id="node8" class="node">
<title>/pc_cylinder/humidity</title>
<polygon fill="#fbd740" stroke="black" points="1417,-36 1251,-36 1251,0 1417,0 1417,-36"/>
<text text-anchor="middle" x="1334" y="-14.3" font-family="sans-serif" font-size="14.00">/pc_cylinder/humidity</text>
</g>
<!-- /sim_internal_sensors&#45;&gt;/pc_cylinder/humidity -->
<g id="edge7" class="edge">
<title>/sim_internal_sensors&#45;&gt;/pc_cylinder/humidity</title>
<path fill="none" stroke="black" d="M1137.5,-74.24C1174.15,-63.94 1223.47,-50.07 1263.53,-38.81"/>
<polygon fill="black" stroke="black" points="1264.56,-42.16 1273.24,-36.08 1262.67,-35.42 1264.56,-42.16"/>
</g>
<!-- /pc_cylinder/pressure -->
<g id="node9" class="node">
<title>/pc_cylinder/pressure</title>
<polygon fill="#fbd740" stroke="black" points="1599,-36 1435,-36 1435,0 1599,0 1599,-36"/>
<text text-anchor="middle" x="1517" y="-14.3" font-family="sans-serif" font-size="14.00">/pc_cylinder/pressure</text>
</g>
<!-- /sim_internal_sensors&#45;&gt;/pc_cylinder/pressure -->
<g id="edge8" class="edge">
<title>/sim_internal_sensors&#45;&gt;/pc_cylinder/pressure</title>
<path fill="none" stroke="black" d="M1163.32,-77.52C1230.15,-67.57 1329.05,-52.46 1424.56,-36.22"/>
<polygon fill="black" stroke="black" points="1425.41,-39.63 1434.68,-34.49 1424.23,-32.73 1425.41,-39.63"/>
</g>
<!-- /pc_cylinder/temperature -->
<g id="node10" class="node">
<title>/pc_cylinder/temperature</title>
<polygon fill="#fbd740" stroke="black" points="1808.5,-36 1617.5,-36 1617.5,0 1808.5,0 1808.5,-36"/>
<text text-anchor="middle" x="1713" y="-14.3" font-family="sans-serif" font-size="14.00">/pc_cylinder/temperature</text>
</g>
<!-- /sim_internal_sensors&#45;&gt;/pc_cylinder/temperature -->
<g id="edge9" class="edge">
<title>/sim_internal_sensors&#45;&gt;/pc_cylinder/temperature</title>
<path fill="none" stroke="black" d="M1179.2,-81.15C1281.81,-72.22 1451.01,-56.36 1607.2,-36.06"/>
<polygon fill="black" stroke="black" points="1608,-39.48 1617.47,-34.71 1607.1,-32.54 1608,-39.48"/>
</g>
<!-- /pc_cylinder/water_detected -->
<g id="node11" class="node">
<title>/pc_cylinder/water_detected</title>
<polygon fill="#fbd740" stroke="black" points="2037.5,-36 1826.5,-36 1826.5,0 2037.5,0 2037.5,-36"/>
<text text-anchor="middle" x="1932" y="-14.3" font-family="sans-serif" font-size="14.00">/pc_cylinder/water_detected</text>
</g>
<!-- /sim_internal_sensors&#45;&gt;/pc_cylinder/water_detected -->
<g id="edge10" class="edge">
<title>/sim_internal_sensors&#45;&gt;/pc_cylinder/water_detected</title>
<path fill="none" stroke="black" d="M1186.9,-84.08C1326.61,-76.78 1585.65,-61.3 1816.19,-36.16"/>
<polygon fill="black" stroke="black" points="1816.89,-39.6 1826.45,-35.03 1816.13,-32.64 1816.89,-39.6"/>
</g>
</g>
</svg>
