<?xml version="1.0" encoding="UTF-8" standalone="no"?>
<!DOCTYPE svg PUBLIC "-//W3C//DTD SVG 1.1//EN"
 "http://www.w3.org/Graphics/SVG/1.1/DTD/svg11.dtd">
<!-- Generated by graphviz version 2.43.0 (0)
 -->
<!-- Title: G Pages: 1 -->
<svg width="1084pt" height="188pt"
 viewBox="0.00 0.00 1083.50 188.00" xmlns="http://www.w3.org/2000/svg" xmlns:xlink="http://www.w3.org/1999/xlink">
<g id="graph0" class="graph" transform="scale(1 1) rotate(0) translate(4 184)">
<title>G</title>
<polygon fill="white" stroke="transparent" points="-4,4 -4,-184 1079.5,-184 1079.5,4 -4,4"/>
<!-- /navigator_surface -->
<g id="node1" class="node">
<title>/navigator_surface</title>
<ellipse fill="#072c43" stroke="black" cx="498.5" cy="-90" rx="94.78" ry="18"/>
<text text-anchor="middle" x="498.5" y="-86.3" font-family="sans-serif" font-size="14.00" fill="#a4c4bf">/navigator_surface</text>
</g>
<!-- /diagnostics -->
<g id="node2" class="node">
<title>/diagnostics</title>
<polygon fill="#fbd740" stroke="black" points="141.5,-36 41.5,-36 41.5,0 141.5,0 141.5,-36"/>
<text text-anchor="middle" x="91.5" y="-14.3" font-family="sans-serif" font-size="14.00">/diagnostics</text>
</g>
<!-- /navigator_surface&#45;&gt;/diagnostics -->
<g id="edge1" class="edge">
<title>/navigator_surface&#45;&gt;/diagnostics</title>
<path fill="none" stroke="black" d="M419.53,-79.93C351,-71.39 249.03,-57.05 151.62,-36.1"/>
<polygon fill="black" stroke="black" points="152.12,-32.62 141.6,-33.91 150.63,-39.46 152.12,-32.62"/>
</g>
<!-- /navigator_surface/gps_ned -->
<g id="node3" class="node">
<title>/navigator_surface/gps_ned</title>
<polygon fill="#fbd740" stroke="black" points="369,-36 160,-36 160,0 369,0 369,-36"/>
<text text-anchor="middle" x="264.5" y="-14.3" font-family="sans-serif" font-size="14.00">/navigator_surface/gps_ned</text>
</g>
<!-- /navigator_surface&#45;&gt;/navigator_surface/gps_ned -->
<g id="edge2" class="edge">
<title>/navigator_surface&#45;&gt;/navigator_surface/gps_ned</title>
<path fill="none" stroke="black" d="M450.02,-74.5C415.73,-64.24 369.33,-50.36 331.5,-39.04"/>
<polygon fill="black" stroke="black" points="332.17,-35.59 321.59,-36.08 330.16,-42.3 332.17,-35.59"/>
</g>
<!-- /navigator_surface/navigation -->
<g id="node4" class="node">
<title>/navigator_surface/navigation</title>
<polygon fill="#fbd740" stroke="black" points="610,-36 387,-36 387,0 610,0 610,-36"/>
<text text-anchor="middle" x="498.5" y="-14.3" font-family="sans-serif" font-size="14.00">/navigator_surface/navigation</text>
</g>
<!-- /navigator_surface&#45;&gt;/navigator_surface/navigation -->
<g id="edge3" class="edge">
<title>/navigator_surface&#45;&gt;/navigator_surface/navigation</title>
<path fill="none" stroke="black" d="M498.5,-71.7C498.5,-63.98 498.5,-54.71 498.5,-46.11"/>
<polygon fill="black" stroke="black" points="502,-46.1 498.5,-36.1 495,-46.1 502,-46.1"/>
</g>
<!-- /navigator_surface/odometry -->
<g id="node5" class="node">
<title>/navigator_surface/odometry</title>
<polygon fill="#fbd740" stroke="black" points="845,-36 628,-36 628,0 845,0 845,-36"/>
<text text-anchor="middle" x="736.5" y="-14.3" font-family="sans-serif" font-size="14.00">/navigator_surface/odometry</text>
</g>
<!-- /navigator_surface&#45;&gt;/navigator_surface/odometry -->
<g id="edge4" class="edge">
<title>/navigator_surface&#45;&gt;/navigator_surface/odometry</title>
<path fill="none" stroke="black" d="M547.53,-74.58C582.52,-64.29 630.05,-50.31 668.68,-38.95"/>
<polygon fill="black" stroke="black" points="669.69,-42.3 678.3,-36.12 667.72,-35.58 669.69,-42.3"/>
</g>
<!-- /navigator_surface/usbl_ned -->
<g id="node6" class="node">
<title>/navigator_surface/usbl_ned</title>
<polygon fill="#fbd740" stroke="black" points="1075.5,-36 863.5,-36 863.5,0 1075.5,0 1075.5,-36"/>
<text text-anchor="middle" x="969.5" y="-14.3" font-family="sans-serif" font-size="14.00">/navigator_surface/usbl_ned</text>
</g>
<!-- /navigator_surface&#45;&gt;/navigator_surface/usbl_ned -->
<g id="edge5" class="edge">
<title>/navigator_surface&#45;&gt;/navigator_surface/usbl_ned</title>
<path fill="none" stroke="black" d="M570.8,-78.25C646.04,-67.07 764.99,-49.39 853.41,-36.25"/>
<polygon fill="black" stroke="black" points="854.12,-39.69 863.49,-34.75 853.09,-32.76 854.12,-39.69"/>
</g>
<!-- /navigator_surface/altitude -->
<g id="node7" class="node">
<title>/navigator_surface/altitude</title>
<polygon fill="#fbd740" stroke="black" points="203,-180 0,-180 0,-144 203,-144 203,-180"/>
<text text-anchor="middle" x="101.5" y="-158.3" font-family="sans-serif" font-size="14.00">/navigator_surface/altitude</text>
</g>
<!-- /navigator_surface/altitude&#45;&gt;/navigator_surface -->
<g id="edge6" class="edge">
<title>/navigator_surface/altitude&#45;&gt;/navigator_surface</title>
<path fill="none" stroke="black" d="M198.11,-143.97C266.74,-131.87 357.66,-115.83 421.42,-104.59"/>
<polygon fill="black" stroke="black" points="422.18,-108.01 431.42,-102.83 420.96,-101.12 422.18,-108.01"/>
</g>
<!-- /navigator_surface/dvl -->
<g id="node8" class="node">
<title>/navigator_surface/dvl</title>
<polygon fill="#fbd740" stroke="black" points="392,-180 221,-180 221,-144 392,-144 392,-180"/>
<text text-anchor="middle" x="306.5" y="-158.3" font-family="sans-serif" font-size="14.00">/navigator_surface/dvl</text>
</g>
<!-- /navigator_surface/dvl&#45;&gt;/navigator_surface -->
<g id="edge7" class="edge">
<title>/navigator_surface/dvl&#45;&gt;/navigator_surface</title>
<path fill="none" stroke="black" d="M353.47,-143.88C381.8,-133.55 417.91,-120.38 447.01,-109.77"/>
<polygon fill="black" stroke="black" points="448.39,-112.99 456.59,-106.28 446,-106.42 448.39,-112.99"/>
</g>
<!-- /navigator_surface/gps -->
<g id="node9" class="node">
<title>/navigator_surface/gps</title>
<polygon fill="#fbd740" stroke="black" points="586.5,-180 410.5,-180 410.5,-144 586.5,-144 586.5,-180"/>
<text text-anchor="middle" x="498.5" y="-158.3" font-family="sans-serif" font-size="14.00">/navigator_surface/gps</text>
</g>
<!-- /navigator_surface/gps&#45;&gt;/navigator_surface -->
<g id="edge8" class="edge">
<title>/navigator_surface/gps&#45;&gt;/navigator_surface</title>
<path fill="none" stroke="black" d="M498.5,-143.7C498.5,-135.98 498.5,-126.71 498.5,-118.11"/>
<polygon fill="black" stroke="black" points="502,-118.1 498.5,-108.1 495,-118.1 502,-118.1"/>
</g>
<!-- /navigator_surface/imu -->
<g id="node10" class="node">
<title>/navigator_surface/imu</title>
<polygon fill="#fbd740" stroke="black" points="780.5,-180 604.5,-180 604.5,-144 780.5,-144 780.5,-180"/>
<text text-anchor="middle" x="692.5" y="-158.3" font-family="sans-serif" font-size="14.00">/navigator_surface/imu</text>
</g>
<!-- /navigator_surface/imu&#45;&gt;/navigator_surface -->
<g id="edge9" class="edge">
<title>/navigator_surface/imu&#45;&gt;/navigator_surface</title>
<path fill="none" stroke="black" d="M645.04,-143.88C616.32,-133.51 579.67,-120.29 550.21,-109.66"/>
<polygon fill="black" stroke="black" points="551.12,-106.26 540.52,-106.16 548.74,-112.85 551.12,-106.26"/>
</g>
<!-- /navigator_surface/sound_velocity -->
<g id="node11" class="node">
<title>/navigator_surface/sound_velocity</title>
<polygon fill="#fbd740" stroke="black" points="1052,-180 799,-180 799,-144 1052,-144 1052,-180"/>
<text text-anchor="middle" x="925.5" y="-158.3" font-family="sans-serif" font-size="14.00">/navigator_surface/sound_velocity</text>
</g>
<!-- /navigator_surface/sound_velocity&#45;&gt;/navigator_surface -->
<g id="edge10" class="edge">
<title>/navigator_surface/sound_velocity&#45;&gt;/navigator_surface</title>
<path fill="none" stroke="black" d="M821.59,-143.97C746.41,-131.64 646.37,-115.24 577.63,-103.97"/>
<polygon fill="black" stroke="black" points="578.16,-100.51 567.72,-102.35 577.03,-107.42 578.16,-100.51"/>
</g>
</g>
</svg>
