<?xml version="1.0" encoding="UTF-8" standalone="no"?>
<!DOCTYPE svg PUBLIC "-//W3C//DTD SVG 1.1//EN"
 "http://www.w3.org/Graphics/SVG/1.1/DTD/svg11.dtd">
<!-- Generated by graphviz version 2.43.0 (0)
 -->
<!-- Title: G Pages: 1 -->
<svg width="1076pt" height="188pt"
 viewBox="0.00 0.00 1075.50 188.00" xmlns="http://www.w3.org/2000/svg" xmlns:xlink="http://www.w3.org/1999/xlink">
<g id="graph0" class="graph" transform="scale(1 1) rotate(0) translate(4 184)">
<title>G</title>
<polygon fill="white" stroke="transparent" points="-4,4 -4,-184 1071.5,-184 1071.5,4 -4,4"/>
<!-- /navigator -->
<g id="node1" class="node">
<title>/navigator</title>
<ellipse fill="#072c43" stroke="black" cx="488" cy="-90" rx="56.59" ry="18"/>
<text text-anchor="middle" x="488" y="-86.3" font-family="sans-serif" font-size="14.00" fill="#a4c4bf">/navigator</text>
</g>
<!-- /diagnostics -->
<g id="node2" class="node">
<title>/diagnostics</title>
<polygon fill="#fbd740" stroke="black" points="220,-36 120,-36 120,0 220,0 220,-36"/>
<text text-anchor="middle" x="170" y="-14.3" font-family="sans-serif" font-size="14.00">/diagnostics</text>
</g>
<!-- /navigator&#45;&gt;/diagnostics -->
<g id="edge1" class="edge">
<title>/navigator&#45;&gt;/diagnostics</title>
<path fill="none" stroke="black" d="M440.01,-80.35C389.97,-71.07 309.07,-55.34 230.24,-36.21"/>
<polygon fill="black" stroke="black" points="230.69,-32.72 220.14,-33.74 229.02,-39.52 230.69,-32.72"/>
</g>
<!-- /navigator/gps_ned -->
<g id="node3" class="node">
<title>/navigator/gps_ned</title>
<polygon fill="#fbd740" stroke="black" points="388,-36 238,-36 238,0 388,0 388,-36"/>
<text text-anchor="middle" x="313" y="-14.3" font-family="sans-serif" font-size="14.00">/navigator/gps_ned</text>
</g>
<!-- /navigator&#45;&gt;/navigator/gps_ned -->
<g id="edge2" class="edge">
<title>/navigator&#45;&gt;/navigator/gps_ned</title>
<path fill="none" stroke="black" d="M454.26,-75.5C429,-65.4 394,-51.4 365.15,-39.86"/>
<polygon fill="black" stroke="black" points="366.21,-36.52 355.63,-36.05 363.61,-43.01 366.21,-36.52"/>
</g>
<!-- /navigator/navigation -->
<g id="node4" class="node">
<title>/navigator/navigation</title>
<polygon fill="#fbd740" stroke="black" points="570,-36 406,-36 406,0 570,0 570,-36"/>
<text text-anchor="middle" x="488" y="-14.3" font-family="sans-serif" font-size="14.00">/navigator/navigation</text>
</g>
<!-- /navigator&#45;&gt;/navigator/navigation -->
<g id="edge3" class="edge">
<title>/navigator&#45;&gt;/navigator/navigation</title>
<path fill="none" stroke="black" d="M488,-71.7C488,-63.98 488,-54.71 488,-46.11"/>
<polygon fill="black" stroke="black" points="491.5,-46.1 488,-36.1 484.5,-46.1 491.5,-46.1"/>
</g>
<!-- /navigator/odometry -->
<g id="node5" class="node">
<title>/navigator/odometry</title>
<polygon fill="#fbd740" stroke="black" points="746,-36 588,-36 588,0 746,0 746,-36"/>
<text text-anchor="middle" x="667" y="-14.3" font-family="sans-serif" font-size="14.00">/navigator/odometry</text>
</g>
<!-- /navigator&#45;&gt;/navigator/odometry -->
<g id="edge4" class="edge">
<title>/navigator&#45;&gt;/navigator/odometry</title>
<path fill="none" stroke="black" d="M522.51,-75.5C548.46,-65.36 584.46,-51.28 614.04,-39.71"/>
<polygon fill="black" stroke="black" points="615.36,-42.95 623.4,-36.05 612.81,-36.43 615.36,-42.95"/>
</g>
<!-- /navigator/usbl_ned -->
<g id="node6" class="node">
<title>/navigator/usbl_ned</title>
<polygon fill="#fbd740" stroke="black" points="918,-36 764,-36 764,0 918,0 918,-36"/>
<text text-anchor="middle" x="841" y="-14.3" font-family="sans-serif" font-size="14.00">/navigator/usbl_ned</text>
</g>
<!-- /navigator&#45;&gt;/navigator/usbl_ned -->
<g id="edge5" class="edge">
<title>/navigator&#45;&gt;/navigator/usbl_ned</title>
<path fill="none" stroke="black" d="M534.88,-79.7C590.56,-68.66 684.6,-50.01 753.79,-36.29"/>
<polygon fill="black" stroke="black" points="754.68,-39.69 763.81,-34.31 753.32,-32.82 754.68,-39.69"/>
</g>
<!-- /navigator/altitude -->
<g id="node7" class="node">
<title>/navigator/altitude</title>
<polygon fill="#fbd740" stroke="black" points="144,-180 0,-180 0,-144 144,-144 144,-180"/>
<text text-anchor="middle" x="72" y="-158.3" font-family="sans-serif" font-size="14.00">/navigator/altitude</text>
</g>
<!-- /navigator/altitude&#45;&gt;/navigator -->
<g id="edge6" class="edge">
<title>/navigator/altitude&#45;&gt;/navigator</title>
<path fill="none" stroke="black" d="M144.39,-145.62C147.29,-145.06 150.17,-144.52 153,-144 248.57,-126.42 360.14,-109.48 427.36,-99.66"/>
<polygon fill="black" stroke="black" points="427.96,-103.11 437.35,-98.21 426.95,-96.18 427.96,-103.11"/>
</g>
<!-- /navigator/dvl -->
<g id="node8" class="node">
<title>/navigator/dvl</title>
<polygon fill="#fbd740" stroke="black" points="275.5,-180 162.5,-180 162.5,-144 275.5,-144 275.5,-180"/>
<text text-anchor="middle" x="219" y="-158.3" font-family="sans-serif" font-size="14.00">/navigator/dvl</text>
</g>
<!-- /navigator/dvl&#45;&gt;/navigator -->
<g id="edge7" class="edge">
<title>/navigator/dvl&#45;&gt;/navigator</title>
<path fill="none" stroke="black" d="M275.72,-146.16C278.52,-145.43 281.29,-144.71 284,-144 335.52,-130.57 394.38,-115.28 435.59,-104.59"/>
<polygon fill="black" stroke="black" points="436.61,-107.94 445.41,-102.04 434.85,-101.17 436.61,-107.94"/>
</g>
<!-- /navigator/gps -->
<g id="node9" class="node">
<title>/navigator/gps</title>
<polygon fill="#fbd740" stroke="black" points="410.5,-180 293.5,-180 293.5,-144 410.5,-144 410.5,-180"/>
<text text-anchor="middle" x="352" y="-158.3" font-family="sans-serif" font-size="14.00">/navigator/gps</text>
</g>
<!-- /navigator/gps&#45;&gt;/navigator -->
<g id="edge8" class="edge">
<title>/navigator/gps&#45;&gt;/navigator</title>
<path fill="none" stroke="black" d="M385.27,-143.88C405.05,-133.7 430.18,-120.76 450.64,-110.23"/>
<polygon fill="black" stroke="black" points="452.38,-113.27 459.67,-105.58 449.18,-107.05 452.38,-113.27"/>
</g>
<!-- /navigator/imu -->
<g id="node10" class="node">
<title>/navigator/imu</title>
<polygon fill="#fbd740" stroke="black" points="547,-180 429,-180 429,-144 547,-144 547,-180"/>
<text text-anchor="middle" x="488" y="-158.3" font-family="sans-serif" font-size="14.00">/navigator/imu</text>
</g>
<!-- /navigator/imu&#45;&gt;/navigator -->
<g id="edge9" class="edge">
<title>/navigator/imu&#45;&gt;/navigator</title>
<path fill="none" stroke="black" d="M488,-143.7C488,-135.98 488,-126.71 488,-118.11"/>
<polygon fill="black" stroke="black" points="491.5,-118.1 488,-108.1 484.5,-118.1 491.5,-118.1"/>
</g>
<!-- /navigator/pressure -->
<g id="node11" class="node">
<title>/navigator/pressure</title>
<polygon fill="#fbd740" stroke="black" points="717,-180 565,-180 565,-144 717,-144 717,-180"/>
<text text-anchor="middle" x="641" y="-158.3" font-family="sans-serif" font-size="14.00">/navigator/pressure</text>
</g>
<!-- /navigator/pressure&#45;&gt;/navigator -->
<g id="edge10" class="edge">
<title>/navigator/pressure&#45;&gt;/navigator</title>
<path fill="none" stroke="black" d="M603.57,-143.88C580.71,-133.42 551.49,-120.05 528.15,-109.37"/>
<polygon fill="black" stroke="black" points="529.42,-106.1 518.87,-105.12 526.51,-112.47 529.42,-106.1"/>
</g>
<!-- /navigator/sound_velocity -->
<g id="node12" class="node">
<title>/navigator/sound_velocity</title>
<polygon fill="#fbd740" stroke="black" points="929,-180 735,-180 735,-144 929,-144 929,-180"/>
<text text-anchor="middle" x="832" y="-158.3" font-family="sans-serif" font-size="14.00">/navigator/sound_velocity</text>
</g>
<!-- /navigator/sound_velocity&#45;&gt;/navigator -->
<g id="edge11" class="edge">
<title>/navigator/sound_velocity&#45;&gt;/navigator</title>
<path fill="none" stroke="black" d="M748.29,-143.97C685.01,-131.09 599.85,-113.76 544.45,-102.49"/>
<polygon fill="black" stroke="black" points="544.96,-99.02 534.46,-100.45 543.56,-105.88 544.96,-99.02"/>
</g>
<!-- /navigator/usbl -->
<g id="node13" class="node">
<title>/navigator/usbl</title>
<polygon fill="#fbd740" stroke="black" points="1067.5,-180 946.5,-180 946.5,-144 1067.5,-144 1067.5,-180"/>
<text text-anchor="middle" x="1007" y="-158.3" font-family="sans-serif" font-size="14.00">/navigator/usbl</text>
</g>
<!-- /navigator/usbl&#45;&gt;/navigator -->
<g id="edge12" class="edge">
<title>/navigator/usbl&#45;&gt;/navigator</title>
<path fill="none" stroke="black" d="M946.14,-145.57C943.39,-145.01 940.67,-144.48 938,-144 801.75,-119.29 640.11,-103.5 552.41,-96.05"/>
<polygon fill="black" stroke="black" points="552.61,-92.55 542.35,-95.2 552.02,-99.53 552.61,-92.55"/>
</g>
</g>
</svg>
