<?xml version="1.0" encoding="UTF-8" standalone="no"?>
<!DOCTYPE svg PUBLIC "-//W3C//DTD SVG 1.1//EN"
 "http://www.w3.org/Graphics/SVG/1.1/DTD/svg11.dtd">
<!-- Generated by graphviz version 2.43.0 (0)
 -->
<!-- Title: G Pages: 1 -->
<svg width="1506pt" height="188pt"
 viewBox="0.00 0.00 1506.00 188.00" xmlns="http://www.w3.org/2000/svg" xmlns:xlink="http://www.w3.org/1999/xlink">
<g id="graph0" class="graph" transform="scale(1 1) rotate(0) translate(4 184)">
<title>G</title>
<polygon fill="white" stroke="transparent" points="-4,4 -4,-184 1502,-184 1502,4 -4,4"/>
<!-- /navigator_position -->
<g id="node1" class="node">
<title>/navigator_position</title>
<ellipse fill="#072c43" stroke="black" cx="703" cy="-90" rx="96.68" ry="18"/>
<text text-anchor="middle" x="703" y="-86.3" font-family="sans-serif" font-size="14.00" fill="#a4c4bf">/navigator_position</text>
</g>
<!-- /diagnostics -->
<g id="node2" class="node">
<title>/diagnostics</title>
<polygon fill="#fbd740" stroke="black" points="342,-36 242,-36 242,0 342,0 342,-36"/>
<text text-anchor="middle" x="292" y="-14.3" font-family="sans-serif" font-size="14.00">/diagnostics</text>
</g>
<!-- /navigator_position&#45;&gt;/diagnostics -->
<g id="edge1" class="edge">
<title>/navigator_position&#45;&gt;/diagnostics</title>
<path fill="none" stroke="black" d="M622.42,-79.92C553.03,-71.4 450.12,-57.1 351.89,-36.04"/>
<polygon fill="black" stroke="black" points="352.61,-32.62 342.1,-33.92 351.13,-39.46 352.61,-32.62"/>
</g>
<!-- /navigator_position/gps_ned -->
<g id="node3" class="node">
<title>/navigator_position/gps_ned</title>
<polygon fill="#fbd740" stroke="black" points="572,-36 360,-36 360,0 572,0 572,-36"/>
<text text-anchor="middle" x="466" y="-14.3" font-family="sans-serif" font-size="14.00">/navigator_position/gps_ned</text>
</g>
<!-- /navigator_position&#45;&gt;/navigator_position/gps_ned -->
<g id="edge2" class="edge">
<title>/navigator_position&#45;&gt;/navigator_position/gps_ned</title>
<path fill="none" stroke="black" d="M653.61,-74.41C618.86,-64.15 571.93,-50.29 533.71,-39"/>
<polygon fill="black" stroke="black" points="534.26,-35.51 523.68,-36.04 532.28,-42.23 534.26,-35.51"/>
</g>
<!-- /navigator_position/navigation -->
<g id="node4" class="node">
<title>/navigator_position/navigation</title>
<polygon fill="#fbd740" stroke="black" points="816,-36 590,-36 590,0 816,0 816,-36"/>
<text text-anchor="middle" x="703" y="-14.3" font-family="sans-serif" font-size="14.00">/navigator_position/navigation</text>
</g>
<!-- /navigator_position&#45;&gt;/navigator_position/navigation -->
<g id="edge3" class="edge">
<title>/navigator_position&#45;&gt;/navigator_position/navigation</title>
<path fill="none" stroke="black" d="M703,-71.7C703,-63.98 703,-54.71 703,-46.11"/>
<polygon fill="black" stroke="black" points="706.5,-46.1 703,-36.1 699.5,-46.1 706.5,-46.1"/>
</g>
<!-- /navigator_position/odometry -->
<g id="node5" class="node">
<title>/navigator_position/odometry</title>
<polygon fill="#fbd740" stroke="black" points="1054,-36 834,-36 834,0 1054,0 1054,-36"/>
<text text-anchor="middle" x="944" y="-14.3" font-family="sans-serif" font-size="14.00">/navigator_position/odometry</text>
</g>
<!-- /navigator_position&#45;&gt;/navigator_position/odometry -->
<g id="edge4" class="edge">
<title>/navigator_position&#45;&gt;/navigator_position/odometry</title>
<path fill="none" stroke="black" d="M752.94,-74.5C788.4,-64.2 836.45,-50.24 875.49,-38.9"/>
<polygon fill="black" stroke="black" points="876.58,-42.23 885.21,-36.08 874.63,-35.51 876.58,-42.23"/>
</g>
<!-- /navigator_position/usbl_ned -->
<g id="node6" class="node">
<title>/navigator_position/usbl_ned</title>
<polygon fill="#fbd740" stroke="black" points="1287.5,-36 1072.5,-36 1072.5,0 1287.5,0 1287.5,-36"/>
<text text-anchor="middle" x="1180" y="-14.3" font-family="sans-serif" font-size="14.00">/navigator_position/usbl_ned</text>
</g>
<!-- /navigator_position&#45;&gt;/navigator_position/usbl_ned -->
<g id="edge5" class="edge">
<title>/navigator_position&#45;&gt;/navigator_position/usbl_ned</title>
<path fill="none" stroke="black" d="M776.49,-78.22C852.68,-67.03 972.95,-49.38 1062.39,-36.26"/>
<polygon fill="black" stroke="black" points="1062.93,-39.72 1072.32,-34.8 1061.91,-32.79 1062.93,-39.72"/>
</g>
<!-- /navigator_position/altitude -->
<g id="node7" class="node">
<title>/navigator_position/altitude</title>
<polygon fill="#fbd740" stroke="black" points="206,-180 0,-180 0,-144 206,-144 206,-180"/>
<text text-anchor="middle" x="103" y="-158.3" font-family="sans-serif" font-size="14.00">/navigator_position/altitude</text>
</g>
<!-- /navigator_position/altitude&#45;&gt;/navigator_position -->
<g id="edge6" class="edge">
<title>/navigator_position/altitude&#45;&gt;/navigator_position</title>
<path fill="none" stroke="black" d="M206.11,-145.18C209.11,-144.78 212.07,-144.38 215,-144 351.71,-126.21 510.52,-109.74 608.9,-100.02"/>
<polygon fill="black" stroke="black" points="609.5,-103.48 619.11,-99.02 608.82,-96.52 609.5,-103.48"/>
</g>
<!-- /navigator_position/dvl -->
<g id="node8" class="node">
<title>/navigator_position/dvl</title>
<polygon fill="#fbd740" stroke="black" points="398,-180 224,-180 224,-144 398,-144 398,-180"/>
<text text-anchor="middle" x="311" y="-158.3" font-family="sans-serif" font-size="14.00">/navigator_position/dvl</text>
</g>
<!-- /navigator_position/dvl&#45;&gt;/navigator_position -->
<g id="edge7" class="edge">
<title>/navigator_position/dvl&#45;&gt;/navigator_position</title>
<path fill="none" stroke="black" d="M398.48,-145.38C466.6,-133.21 560.24,-116.49 625.63,-104.82"/>
<polygon fill="black" stroke="black" points="626.65,-108.19 635.88,-102.99 625.42,-101.3 626.65,-108.19"/>
</g>
<!-- /navigator_position/gps -->
<g id="node9" class="node">
<title>/navigator_position/gps</title>
<polygon fill="#fbd740" stroke="black" points="595.5,-180 416.5,-180 416.5,-144 595.5,-144 595.5,-180"/>
<text text-anchor="middle" x="506" y="-158.3" font-family="sans-serif" font-size="14.00">/navigator_position/gps</text>
</g>
<!-- /navigator_position/gps&#45;&gt;/navigator_position -->
<g id="edge8" class="edge">
<title>/navigator_position/gps&#45;&gt;/navigator_position</title>
<path fill="none" stroke="black" d="M553.94,-143.97C583.23,-133.56 620.7,-120.24 650.75,-109.57"/>
<polygon fill="black" stroke="black" points="651.97,-112.85 660.22,-106.2 649.63,-106.25 651.97,-112.85"/>
</g>
<!-- /navigator_position/imu -->
<g id="node10" class="node">
<title>/navigator_position/imu</title>
<polygon fill="#fbd740" stroke="black" points="792.5,-180 613.5,-180 613.5,-144 792.5,-144 792.5,-180"/>
<text text-anchor="middle" x="703" y="-158.3" font-family="sans-serif" font-size="14.00">/navigator_position/imu</text>
</g>
<!-- /navigator_position/imu&#45;&gt;/navigator_position -->
<g id="edge9" class="edge">
<title>/navigator_position/imu&#45;&gt;/navigator_position</title>
<path fill="none" stroke="black" d="M703,-143.7C703,-135.98 703,-126.71 703,-118.11"/>
<polygon fill="black" stroke="black" points="706.5,-118.1 703,-108.1 699.5,-118.1 706.5,-118.1"/>
</g>
<!-- /navigator_position/pressure -->
<g id="node11" class="node">
<title>/navigator_position/pressure</title>
<polygon fill="#fbd740" stroke="black" points="1023.5,-180 810.5,-180 810.5,-144 1023.5,-144 1023.5,-180"/>
<text text-anchor="middle" x="917" y="-158.3" font-family="sans-serif" font-size="14.00">/navigator_position/pressure</text>
</g>
<!-- /navigator_position/pressure&#45;&gt;/navigator_position -->
<g id="edge10" class="edge">
<title>/navigator_position/pressure&#45;&gt;/navigator_position</title>
<path fill="none" stroke="black" d="M864.92,-143.97C832.74,-133.44 791.47,-119.94 758.65,-109.2"/>
<polygon fill="black" stroke="black" points="759.35,-105.75 748.76,-105.97 757.17,-112.4 759.35,-105.75"/>
</g>
<!-- /navigator_position/sound_velocity -->
<g id="node12" class="node">
<title>/navigator_position/sound_velocity</title>
<polygon fill="#fbd740" stroke="black" points="1298,-180 1042,-180 1042,-144 1298,-144 1298,-180"/>
<text text-anchor="middle" x="1170" y="-158.3" font-family="sans-serif" font-size="14.00">/navigator_position/sound_velocity</text>
</g>
<!-- /navigator_position/sound_velocity&#45;&gt;/navigator_position -->
<g id="edge11" class="edge">
<title>/navigator_position/sound_velocity&#45;&gt;/navigator_position</title>
<path fill="none" stroke="black" d="M1056.36,-143.97C972.77,-131.44 861.07,-114.69 785.81,-103.41"/>
<polygon fill="black" stroke="black" points="786.31,-99.95 775.9,-101.93 785.27,-106.87 786.31,-99.95"/>
</g>
<!-- /navigator_position/usbl -->
<g id="node13" class="node">
<title>/navigator_position/usbl</title>
<polygon fill="#fbd740" stroke="black" points="1498,-180 1316,-180 1316,-144 1498,-144 1498,-180"/>
<text text-anchor="middle" x="1407" y="-158.3" font-family="sans-serif" font-size="14.00">/navigator_position/usbl</text>
</g>
<!-- /navigator_position/usbl&#45;&gt;/navigator_position -->
<g id="edge12" class="edge">
<title>/navigator_position/usbl&#45;&gt;/navigator_position</title>
<path fill="none" stroke="black" d="M1315.76,-145.18C1312.81,-144.76 1309.88,-144.37 1307,-144 1130.48,-121.29 923.67,-105.46 803.57,-97.33"/>
<polygon fill="black" stroke="black" points="803.51,-93.81 793.3,-96.64 803.04,-100.8 803.51,-93.81"/>
</g>
</g>
</svg>
