<?xml version="1.0" encoding="UTF-8" standalone="no"?>
<!DOCTYPE svg PUBLIC "-//W3C//DTD SVG 1.1//EN"
 "http://www.w3.org/Graphics/SVG/1.1/DTD/svg11.dtd">
<!-- Generated by graphviz version 2.43.0 (0)
 -->
<!-- Title: G Pages: 1 -->
<svg width="1002pt" height="188pt"
 viewBox="0.00 0.00 1002.00 188.00" xmlns="http://www.w3.org/2000/svg" xmlns:xlink="http://www.w3.org/1999/xlink">
<g id="graph0" class="graph" transform="scale(1 1) rotate(0) translate(4 184)">
<title>G</title>
<polygon fill="white" stroke="transparent" points="-4,4 -4,-184 998,-184 998,4 -4,4"/>
<!-- /comms -->
<g id="node1" class="node">
<title>/comms</title>
<ellipse fill="#072c43" stroke="black" cx="456" cy="-90" rx="46.29" ry="18"/>
<text text-anchor="middle" x="456" y="-86.3" font-family="sans-serif" font-size="14.00" fill="#a4c4bf">/comms</text>
</g>
<!-- /comms/custom_output -->
<g id="node2" class="node">
<title>/comms/custom_output</title>
<polygon fill="#fbd740" stroke="black" points="292.5,-36 113.5,-36 113.5,0 292.5,0 292.5,-36"/>
<text text-anchor="middle" x="203" y="-14.3" font-family="sans-serif" font-size="14.00">/comms/custom_output</text>
</g>
<!-- /comms&#45;&gt;/comms/custom_output -->
<g id="edge1" class="edge">
<title>/comms&#45;&gt;/comms/custom_output</title>
<path fill="none" stroke="black" d="M419.48,-78.9C381.67,-68.43 321.61,-51.82 274.33,-38.74"/>
<polygon fill="black" stroke="black" points="275.02,-35.3 264.45,-36 273.16,-42.04 275.02,-35.3"/>
</g>
<!-- /comms/to_modem -->
<g id="node3" class="node">
<title>/comms/to_modem</title>
<polygon fill="#fbd740" stroke="black" points="459.5,-36 310.5,-36 310.5,0 459.5,0 459.5,-36"/>
<text text-anchor="middle" x="385" y="-14.3" font-family="sans-serif" font-size="14.00">/comms/to_modem</text>
</g>
<!-- /comms&#45;&gt;/comms/to_modem -->
<g id="edge2" class="edge">
<title>/comms&#45;&gt;/comms/to_modem</title>
<path fill="none" stroke="black" d="M439.89,-73.12C431.02,-64.37 419.82,-53.33 409.86,-43.51"/>
<polygon fill="black" stroke="black" points="412.12,-40.82 402.54,-36.29 407.2,-45.81 412.12,-40.82"/>
</g>
<!-- /diagnostics -->
<g id="node4" class="node">
<title>/diagnostics</title>
<polygon fill="#fbd740" stroke="black" points="578,-36 478,-36 478,0 578,0 578,-36"/>
<text text-anchor="middle" x="528" y="-14.3" font-family="sans-serif" font-size="14.00">/diagnostics</text>
</g>
<!-- /comms&#45;&gt;/diagnostics -->
<g id="edge3" class="edge">
<title>/comms&#45;&gt;/diagnostics</title>
<path fill="none" stroke="black" d="M472.34,-73.12C481.4,-64.31 492.85,-53.17 503.01,-43.29"/>
<polygon fill="black" stroke="black" points="505.74,-45.52 510.47,-36.04 500.86,-40.51 505.74,-45.52"/>
</g>
<!-- /navigator/usbl -->
<g id="node5" class="node">
<title>/navigator/usbl</title>
<polygon fill="#fbd740" stroke="black" points="717.5,-36 596.5,-36 596.5,0 717.5,0 717.5,-36"/>
<text text-anchor="middle" x="657" y="-14.3" font-family="sans-serif" font-size="14.00">/navigator/usbl</text>
</g>
<!-- /comms&#45;&gt;/navigator/usbl -->
<g id="edge4" class="edge">
<title>/comms&#45;&gt;/navigator/usbl</title>
<path fill="none" stroke="black" d="M489.19,-77.44C518.75,-67.15 562.68,-51.85 598.18,-39.48"/>
<polygon fill="black" stroke="black" points="599.66,-42.68 607.95,-36.08 597.36,-36.07 599.66,-42.68"/>
</g>
<!-- /comms/custom_input -->
<g id="node6" class="node">
<title>/comms/custom_input</title>
<polygon fill="#fbd740" stroke="black" points="170,-180 0,-180 0,-144 170,-144 170,-180"/>
<text text-anchor="middle" x="85" y="-158.3" font-family="sans-serif" font-size="14.00">/comms/custom_input</text>
</g>
<!-- /comms/custom_input&#45;&gt;/comms -->
<g id="edge5" class="edge">
<title>/comms/custom_input&#45;&gt;/comms</title>
<path fill="none" stroke="black" d="M170.11,-144.94C242.72,-131.24 344.67,-112.01 405.17,-100.59"/>
<polygon fill="black" stroke="black" points="406.07,-103.98 415.24,-98.69 404.77,-97.1 406.07,-103.98"/>
</g>
<!-- /comms/from_modem -->
<g id="node7" class="node">
<title>/comms/from_modem</title>
<polygon fill="#fbd740" stroke="black" points="355.5,-180 188.5,-180 188.5,-144 355.5,-144 355.5,-180"/>
<text text-anchor="middle" x="272" y="-158.3" font-family="sans-serif" font-size="14.00">/comms/from_modem</text>
</g>
<!-- /comms/from_modem&#45;&gt;/comms -->
<g id="edge6" class="edge">
<title>/comms/from_modem&#45;&gt;/comms</title>
<path fill="none" stroke="black" d="M317.01,-143.88C346.83,-132.53 385.66,-117.76 414.7,-106.71"/>
<polygon fill="black" stroke="black" points="416.04,-109.95 424.14,-103.12 413.55,-103.41 416.04,-109.95"/>
</g>
<!-- /navigator/navigation -->
<g id="node8" class="node">
<title>/navigator/navigation</title>
<polygon fill="#fbd740" stroke="black" points="538,-180 374,-180 374,-144 538,-144 538,-180"/>
<text text-anchor="middle" x="456" y="-158.3" font-family="sans-serif" font-size="14.00">/navigator/navigation</text>
</g>
<!-- /navigator/navigation&#45;&gt;/comms -->
<g id="edge7" class="edge">
<title>/navigator/navigation&#45;&gt;/comms</title>
<path fill="none" stroke="black" d="M456,-143.7C456,-135.98 456,-126.71 456,-118.11"/>
<polygon fill="black" stroke="black" points="459.5,-118.1 456,-108.1 452.5,-118.1 459.5,-118.1"/>
</g>
<!-- /safety_supervisor/status -->
<g id="node9" class="node">
<title>/safety_supervisor/status</title>
<polygon fill="#fbd740" stroke="black" points="747.5,-180 556.5,-180 556.5,-144 747.5,-144 747.5,-180"/>
<text text-anchor="middle" x="652" y="-158.3" font-family="sans-serif" font-size="14.00">/safety_supervisor/status</text>
</g>
<!-- /safety_supervisor/status&#45;&gt;/comms -->
<g id="edge8" class="edge">
<title>/safety_supervisor/status&#45;&gt;/comms</title>
<path fill="none" stroke="black" d="M604.3,-143.97C571.99,-132.43 529.67,-117.31 498.52,-106.18"/>
<polygon fill="black" stroke="black" points="499.41,-102.79 488.82,-102.72 497.06,-109.38 499.41,-102.79"/>
</g>
<!-- /watchdog_timer/elapsed_time -->
<g id="node10" class="node">
<title>/watchdog_timer/elapsed_time</title>
<polygon fill="#fbd740" stroke="black" points="994,-180 766,-180 766,-144 994,-144 994,-180"/>
<text text-anchor="middle" x="880" y="-158.3" font-family="sans-serif" font-size="14.00">/watchdog_timer/elapsed_time</text>
</g>
<!-- /watchdog_timer/elapsed_time&#45;&gt;/comms -->
<g id="edge9" class="edge">
<title>/watchdog_timer/elapsed_time&#45;&gt;/comms</title>
<path fill="none" stroke="black" d="M776.82,-143.97C691.78,-129.93 574.68,-110.59 508.01,-99.59"/>
<polygon fill="black" stroke="black" points="508.2,-96.07 497.76,-97.89 507.06,-102.98 508.2,-96.07"/>
</g>
</g>
</svg>
